<svg viewBox="0 0 1500 1500" xmlns="http://www.w3.org/2000/svg" xmlns:xlink="http://www.w3.org/1999/xlink"><linearGradient id="a" gradientUnits="userSpaceOnUse" x1="117.03" x2="1382.97" y1="967.86" y2="967.86"><stop offset="0" stop-color="#414042"/><stop offset="1" stop-color="#231f20"/></linearGradient><path d="m305.42 1193.77h-292.24l62.18-140.85-62.18-152.58h292.24z" fill="#161616"/><path d="m1194.58 912.07h292.24l-62.18 140.85 62.18 152.59h-292.24z" fill="#161616"/><path d="m1338.36 117.6v1264.8l-588.38-241.6-588.3 241.6v-1264.8z" fill="#ff6700"/><path d="m1287.92 157.32v1163.34l-517-185.33-20.9-7.49-20.9 7.49-517 185.33v-1163.34zm50.45-39.72h-1176.7v1264.79l588.33-210.91 588.35 210.91v-1264.79z" fill="#303030"/><path d="m117.03 830.58h1265.93v274.57h-1265.93z" fill="url(#a)"/><circle cx="186.65" cy="973.37" fill="#ff6700" r="26.74"/><circle cx="1313.35" cy="973.37" fill="#ff6700" r="26.74"/><path d="m345.4 970.58c0-30-10.59-43.72-16.2-48.91a1.6 1.6 0 0 0 -2.65 1.42c1.09 17-20.11 21.23-20.11 47.8v.16c0 16.2 12.16 29.41 27.12 29.41s27.11-13.21 27.11-29.41v-.16c0-7.54-2.8-14.78-5.61-20.12-.62-1.11-2.18-.63-2 .31 5.12 22.92-7.66 37.11-7.66 19.5z" fill="#ff6700"/><path d="m313.14 1034a2.88 2.88 0 0 1 -1.87-.78l-69.34-70a2.88 2.88 0 0 1 0-3.78l73.24-73.91a3.28 3.28 0 0 1 1.71-.62h21a2.45 2.45 0 0 1 2.34 1.57 2.57 2.57 0 0 1 -.62 2.83l-68.73 69.51a3.54 3.54 0 0 0 0 5l54.39 55a2.89 2.89 0 0 1 0 3.77l-10.44 10.69a3.21 3.21 0 0 1 -1.72.63zm13.86 12.22a2.46 2.46 0 0 1 -2.33-1.57 2.54 2.54 0 0 1 .62-2.83l68.88-69.51a3.74 3.74 0 0 0 1.09-2.52 3.13 3.13 0 0 0 -1.09-2.51l-54.54-55a2.88 2.88 0 0 1 0-3.78l10.59-10.69a2.58 2.58 0 0 1 1.87-.79 2.4 2.4 0 0 1 1.72.95l69.19 70a2.67 2.67 0 0 1 0 3.77l-73.24 73.91a2.58 2.58 0 0 1 -1.87.79h-20.89z" fill="#ff6700"/><g fill="#fff"><path d="m501.71 935.2a1.56 1.56 0 0 1 -1.56.94 2.94 2.94 0 0 1 -1.87-1.1 18 18 0 0 0 -3.12-2.36 18.59 18.59 0 0 0 -5-2.36 21 21 0 0 0 -7.48-1.1 23.8 23.8 0 0 0 -7.8 1.26 17 17 0 0 0 -5.61 3.46 13.77 13.77 0 0 0 -3.42 5 15.77 15.77 0 0 0 -1.25 6 13.38 13.38 0 0 0 1.71 6.92 14.5 14.5 0 0 0 4.68 4.56 25.45 25.45 0 0 0 6.54 3.14c2.5.94 5 1.73 7.48 2.52a70.45 70.45 0 0 1 7.48 2.83 29.78 29.78 0 0 1 6.55 3.77 16.58 16.58 0 0 1 4.68 5.66 18.88 18.88 0 0 1 1.71 8.34 27.58 27.58 0 0 1 -1.71 9.59 21.89 21.89 0 0 1 -5 7.86 27.12 27.12 0 0 1 -8.11 5.35 29.89 29.89 0 0 1 -10.9 1.89 30.63 30.63 0 0 1 -13.72-2.83 32.73 32.73 0 0 1 -10.13-7.87l1.56-2.51a1.73 1.73 0 0 1 1.56-.79 1.88 1.88 0 0 1 1.25.63c.46.47 1.24 1.1 1.87 1.73.78.63 1.71 1.42 2.8 2.2a21.3 21.3 0 0 0 3.74 2.2 28.35 28.35 0 0 0 4.83 1.73 25.5 25.5 0 0 0 6.24.63 24 24 0 0 0 8.57-1.41 20.29 20.29 0 0 0 6.39-3.93 17.83 17.83 0 0 0 4.05-6 20.2 20.2 0 0 0 1.4-7.39 14 14 0 0 0 -1.71-7.08 13.54 13.54 0 0 0 -4.68-4.72 25.78 25.78 0 0 0 -6.54-3.14c-2.5-.79-5-1.73-7.48-2.52s-5-1.73-7.48-2.67a24.54 24.54 0 0 1 -6.55-3.77 19.12 19.12 0 0 1 -4.67-5.82 20.43 20.43 0 0 1 -1.72-8.81 19.66 19.66 0 0 1 1.56-7.86 21.22 21.22 0 0 1 4.52-6.76 24.5 24.5 0 0 1 7.32-4.72 28.28 28.28 0 0 1 10-1.73 29.44 29.44 0 0 1 11.37 2 31.39 31.39 0 0 1 9.2 6.14z"/><path d="m479.42 1008.79c-5.45 0-10.28-.94-14.18-3a34.29 34.29 0 0 1 -10.44-8l-.47-.47 2-3.14a2.88 2.88 0 0 1 2.34-1.26 2.69 2.69 0 0 1 1.87.94c.47.47 1.24 1.1 2 1.73s1.72 1.42 2.65 2.2a19.17 19.17 0 0 0 3.59 2.05 20.18 20.18 0 0 0 4.67 1.57 23.42 23.42 0 0 0 6.08.63 22.05 22.05 0 0 0 8.26-1.42 19.94 19.94 0 0 0 6.08-3.77 15.56 15.56 0 0 0 3.74-5.66 17.91 17.91 0 0 0 1.24-7.08 12.18 12.18 0 0 0 -1.55-6.6 14.65 14.65 0 0 0 -4.37-4.4 25.13 25.13 0 0 0 -6.23-3c-2.34-.79-4.83-1.73-7.48-2.52s-5.14-1.73-7.48-2.67a27.88 27.88 0 0 1 -6.7-3.93 18.64 18.64 0 0 1 -4.83-6.14 20.14 20.14 0 0 1 -1.87-9.12 21.94 21.94 0 0 1 1.55-8.33 21.69 21.69 0 0 1 4.68-7.08 23.72 23.72 0 0 1 7.64-4.87 26.6 26.6 0 0 1 10.28-1.89 30.54 30.54 0 0 1 11.69 2 31.13 31.13 0 0 1 9.51 6.45l.46.47-1.71 3.31c-.94 1.73-2.65 2.2-4.83.15a21.19 21.19 0 0 0 -3.12-2.2 36.42 36.42 0 0 0 -4.83-2.36 22.18 22.18 0 0 0 -7.17-1.1 21.86 21.86 0 0 0 -7.48 1.26 15.27 15.27 0 0 0 -5.3 3.3 16.14 16.14 0 0 0 -3.27 4.72 14.06 14.06 0 0 0 -1.09 5.66 11.06 11.06 0 0 0 1.56 6.29 14.5 14.5 0 0 0 4.36 4.4 33 33 0 0 0 6.23 3.15c2.34.79 4.84 1.73 7.48 2.52a59.38 59.38 0 0 1 7.48 2.83 28 28 0 0 1 6.71 3.93 18.15 18.15 0 0 1 4.83 6 18.94 18.94 0 0 1 1.87 8.81 27.56 27.56 0 0 1 -1.87 10.06 23.81 23.81 0 0 1 -5.3 8.18 26 26 0 0 1 -8.42 5.5 30.68 30.68 0 0 1 -10.91 1.89zm-22.59-11.79a29.17 29.17 0 0 0 22.75 9.9 28.28 28.28 0 0 0 10.6-1.88 24.91 24.91 0 0 0 7.79-5 22.47 22.47 0 0 0 4.83-7.55 25.86 25.86 0 0 0 1.71-9.28 20.45 20.45 0 0 0 -1.55-8 16.15 16.15 0 0 0 -4.37-5.35 34.83 34.83 0 0 0 -6.23-3.77c-2.34-.94-4.83-1.89-7.33-2.83s-5-1.73-7.48-2.52a38 38 0 0 1 -6.7-3.3 16.05 16.05 0 0 1 -4.83-4.88 13.34 13.34 0 0 1 -1.87-7.39 18.17 18.17 0 0 1 1.25-6.44 14 14 0 0 1 3.58-5.35 15.23 15.23 0 0 1 5.92-3.62 22.08 22.08 0 0 1 8.11-1.25 23.22 23.22 0 0 1 7.79 1.1 24.58 24.58 0 0 1 8.42 5c.93.78 1.24.78 1.24.78a.59.59 0 0 0 .63-.47l1.09-2a28.29 28.29 0 0 0 -8.26-5.51 30.2 30.2 0 0 0 -10.92-1.94 26.45 26.45 0 0 0 -9.66 1.73 22.3 22.3 0 0 0 -7 4.4 18.94 18.94 0 0 0 -5.76 14 18.84 18.84 0 0 0 1.71 8.33 15.13 15.13 0 0 0 4.37 5.5 26.69 26.69 0 0 0 6.23 3.62c2.34.94 4.83 1.89 7.32 2.67s5 1.58 7.48 2.52a29.44 29.44 0 0 1 6.7 3.3 13.64 13.64 0 0 1 4.84 5 14.55 14.55 0 0 1 1.87 7.71 21.83 21.83 0 0 1 -1.41 7.86 15.85 15.85 0 0 1 -4.2 6.29 22.3 22.3 0 0 1 -6.71 4.25 26.34 26.34 0 0 1 -8.88 1.57 28.73 28.73 0 0 1 -6.54-.78 32.43 32.43 0 0 1 -5-1.73 16.35 16.35 0 0 1 -3.9-2.36c-1.09-.79-2-1.58-2.8-2.2a23 23 0 0 1 -1.87-1.73c-.47-.48-.78-.48-.78-.48a.84.84 0 0 0 -.78.48z"/><path d="m594.43 966a50 50 0 0 1 -2.8 17.14 37.3 37.3 0 0 1 -8 13.21 36.89 36.89 0 0 1 -12.15 8.49 42.53 42.53 0 0 1 -31.33 0 34.72 34.72 0 0 1 -12.15-8.49 37.3 37.3 0 0 1 -7.95-13.21 53.68 53.68 0 0 1 0-34.28 37.3 37.3 0 0 1 7.95-13.21 36.79 36.79 0 0 1 12.15-8.49 42.53 42.53 0 0 1 31.33 0 34.68 34.68 0 0 1 12.15 8.49 37.3 37.3 0 0 1 8 13.21 50 50 0 0 1 2.8 17.14zm-6.07 0a47.67 47.67 0 0 0 -2.36-15.39 32.84 32.84 0 0 0 -6.55-11.48 28.37 28.37 0 0 0 -10.28-7.24 36.23 36.23 0 0 0 -26.5 0 28.37 28.37 0 0 0 -10.28 7.24 33.1 33.1 0 0 0 -6.7 11.48 47 47 0 0 0 -2.32 15.39 47.67 47.67 0 0 0 2.34 15.41 31 31 0 0 0 6.7 11.48 28.47 28.47 0 0 0 10.28 7.23 33.22 33.22 0 0 0 13.25 2.52 32.69 32.69 0 0 0 13.25-2.52 26.66 26.66 0 0 0 10.28-7.23 32.93 32.93 0 0 0 6.53-11.46 47 47 0 0 0 2.36-15.43z"/><path d="m555.94 1008.63a42.86 42.86 0 0 1 -15.89-3 35 35 0 0 1 -12.47-8.63 39 39 0 0 1 -8.11-13.53 51.83 51.83 0 0 1 -3-17.45 48.41 48.41 0 0 1 3-17.46 40.43 40.43 0 0 1 8.11-13.56 35 35 0 0 1 12.47-8.65 40.47 40.47 0 0 1 15.89-3.14 43.72 43.72 0 0 1 16 3 35.13 35.13 0 0 1 12.47 8.65 40.56 40.56 0 0 1 8.1 13.53 55.62 55.62 0 0 1 0 34.91 40.41 40.41 0 0 1 -8.1 13.52 35 35 0 0 1 -12.47 8.65 38.53 38.53 0 0 1 -16 3.16zm0-83.34a37.73 37.73 0 0 0 -15.27 3 34.71 34.71 0 0 0 -11.84 8.18 35.09 35.09 0 0 0 -7.64 12.89 51.78 51.78 0 0 0 0 33.65 39.13 39.13 0 0 0 7.64 12.9 34.69 34.69 0 0 0 11.84 8.17 42.61 42.61 0 0 0 30.54 0 34.82 34.82 0 0 0 11.85-8.17 36 36 0 0 0 7.63-12.74 51.78 51.78 0 0 0 0-33.65 39.28 39.28 0 0 0 -7.63-12.9 34.82 34.82 0 0 0 -11.85-8.17 34.4 34.4 0 0 0 -15.27-3.16z"/><path d="m640.72 1002.66a24.73 24.73 0 0 0 10.44-2 23.64 23.64 0 0 0 7.84-5.66 24 24 0 0 0 4.83-8.49 33.41 33.41 0 0 0 1.72-10.69v-50.53h5.76v50.48a36.8 36.8 0 0 1 -2.18 12.58 30.6 30.6 0 0 1 -6.13 10.22 28.27 28.27 0 0 1 -9.66 6.76 33.12 33.12 0 0 1 -12.78 2.52 30.05 30.05 0 0 1 -22.44-9.28 29.25 29.25 0 0 1 -6.12-10.22 37.49 37.49 0 0 1 -2.18-12.58v-50.48h5.92v50.32a34.11 34.11 0 0 0 1.72 10.69 25 25 0 0 0 4.83 8.5 23.78 23.78 0 0 0 7.79 5.66 23.33 23.33 0 0 0 10.6 2.2z"/><path d="m640.72 1008.79a31.88 31.88 0 0 1 -13.09-2.51 28.82 28.82 0 0 1 -10-7.08 32.43 32.43 0 0 1 -6.23-10.54 38.61 38.61 0 0 1 -2.18-12.89v-51.42h7.78v51.42a37.76 37.76 0 0 0 1.56 10.38 23.39 23.39 0 0 0 4.67 8.17 22.23 22.23 0 0 0 7.48 5.51 25.1 25.1 0 0 0 10 2 24.66 24.66 0 0 0 10-1.88 20.2 20.2 0 0 0 7.48-5.51 24.72 24.72 0 0 0 4.68-8.18 31.47 31.47 0 0 0 1.56-10.37v-51.54h7.79v51.42a38.61 38.61 0 0 1 -2.22 12.89 32.64 32.64 0 0 1 -6.24 10.54 28.88 28.88 0 0 1 -10 7.08 31.91 31.91 0 0 1 -13.09 2.51zm-29.72-82.56v49.54a34.94 34.94 0 0 0 2 12.23 28.76 28.76 0 0 0 5.92 9.91 25.4 25.4 0 0 0 9.35 6.61 31 31 0 0 0 12.47 2.35 32.05 32.05 0 0 0 12.46-2.35 26.83 26.83 0 0 0 9.36-6.61 31.66 31.66 0 0 0 5.92-9.91 34.94 34.94 0 0 0 2-12.26v-49.51h-3.89v49.54a36.21 36.21 0 0 1 -1.72 11 23.2 23.2 0 0 1 -5.14 9 23.78 23.78 0 0 1 -8.1 6 26.41 26.41 0 0 1 -10.76 2.2 25.85 25.85 0 0 1 -10.75-2.2 23.68 23.68 0 0 1 -8.1-6 25.13 25.13 0 0 1 -5-9 35.49 35.49 0 0 1 -1.71-11v-49.54z"/><path d="m704.77 965.55h4.83a35.85 35.85 0 0 0 9.66-1.26 19.44 19.44 0 0 0 7.17-3.78 16.21 16.21 0 0 0 4.57-5.81 17.51 17.51 0 0 0 1.56-7.71c0-5.82-1.87-10.06-5.61-12.89s-9.2-4.25-16.52-4.25h-14.86v77h-5.76v-81.56h20.57c9.35 0 16.36 1.89 20.88 5.5 4.68 3.62 6.86 9 6.86 16a21.19 21.19 0 0 1 -1.56 8.5 20.23 20.23 0 0 1 -4.68 6.76 23.06 23.06 0 0 1 -7.16 4.72 35.48 35.48 0 0 1 -9.51 2.51 12 12 0 0 1 2.49 2.36l27.9 35.22h-5.15a4.44 4.44 0 0 1 -1.55-.31 2.79 2.79 0 0 1 -1.25-1.1l-25.87-33a6.4 6.4 0 0 0 -2-1.73 41.75 41.75 0 0 0 -6.85-.48c0-4.24.62-4.71 1.87-4.71z"/><path d="m747.62 1007.85h-7a4.37 4.37 0 0 1 -2-.47 4.43 4.43 0 0 1 -1.62-1.38l-25.87-33a5.11 5.11 0 0 0 -1.72-1.57 50.3 50.3 0 0 0 -6.39-.48h-.93v-4.08c0-1.42.31-2.21 2.8-2.21h5a34.73 34.73 0 0 0 9.35-1.25 19.21 19.21 0 0 0 6.86-3.62 14.43 14.43 0 0 0 4.21-5.51 18.21 18.21 0 0 0 1.4-7.23c0-5.5-1.72-9.43-5.3-12.11s-8.88-4.09-15.9-4.09h-13.85v76.9h-7.79v-83.4h21.66q14.26 0 21.51 5.66c4.83 3.77 7.32 9.43 7.32 16.82a23.58 23.58 0 0 1 -1.71 9 22 22 0 0 1 -4.83 7.07 28.63 28.63 0 0 1 -7.48 5 36.3 36.3 0 0 1 -7.64 2.2 6.71 6.71 0 0 1 .94 1.1zm-43.79-38.85c1.72 0 5.3.15 6.24.63a7.6 7.6 0 0 1 2.49 2l25.87 33a2.63 2.63 0 0 0 .93.95 2.37 2.37 0 0 0 1.09.31h3.12l-26.65-33.65a6.78 6.78 0 0 0 -2.18-2l-2.34-1.41 2.81-.32a27.53 27.53 0 0 0 16.21-6.91 18.29 18.29 0 0 0 4.36-6.45 23.25 23.25 0 0 0 1.56-8.18c0-6.76-2.18-11.79-6.55-15.25s-11.22-5.19-20.26-5.19h-19.63v79.47h3.89v-77.09h15.74c7.33 0 13.09 1.41 17 4.4q6.08 4.49 6.08 13.68a21.7 21.7 0 0 1 -1.56 8 16.52 16.52 0 0 1 -4.83 6.13 21.38 21.38 0 0 1 -7.48 3.94 32.69 32.69 0 0 1 -10 1.41h-4.83c-.46 0-.93 0-1.09 2.52z"/><path d="m814 993.07a1.11 1.11 0 0 1 .94.47l2.33 2.51a40.22 40.22 0 0 1 -5.45 4.88 33.89 33.89 0 0 1 -6.55 3.62 53.17 53.17 0 0 1 -7.63 2.35 42.63 42.63 0 0 1 -9.2.79 37.91 37.91 0 0 1 -15.42-3 32.65 32.65 0 0 1 -12-8.49 39.32 39.32 0 0 1 -7.8-13.21 50 50 0 0 1 -2.8-17.14 46.2 46.2 0 0 1 3-17 39 39 0 0 1 8.1-13.21 36.61 36.61 0 0 1 12.48-8.46 41 41 0 0 1 16-3 43.77 43.77 0 0 1 8.11.63 43.11 43.11 0 0 1 6.85 1.89 26.4 26.4 0 0 1 5.92 3.14 46.36 46.36 0 0 1 5.46 4.25l-1.72 2.51a1.51 1.51 0 0 1 -1.4.63 1.84 1.84 0 0 1 -1.24-.63c-.47-.47-1.25-.94-2-1.57a24.6 24.6 0 0 0 -3-1.89 13.26 13.26 0 0 0 -4.21-1.88 35 35 0 0 0 -5.61-1.58 33 33 0 0 0 -7.17-.63 34.21 34.21 0 0 0 -13.56 2.52 29.44 29.44 0 0 0 -10.57 7.43 35.6 35.6 0 0 0 -7 11.48 42.36 42.36 0 0 0 -2.49 15.25 43.35 43.35 0 0 0 2.49 15.42 33.51 33.51 0 0 0 6.86 11.47 30.77 30.77 0 0 0 23.07 9.75 39.3 39.3 0 0 0 7.79-.62 24.68 24.68 0 0 0 6.23-1.73 28.76 28.76 0 0 0 5.3-2.83 28.29 28.29 0 0 0 4.83-3.94c.16-.15.31-.31.47-.31.13.28.45.13.59.13z"/><path d="m788.3 1008.79a41.83 41.83 0 0 1 -15.74-3 34.28 34.28 0 0 1 -12.31-8.64 38.73 38.73 0 0 1 -8-13.53 51.85 51.85 0 0 1 -2.81-17.45 47.54 47.54 0 0 1 3-17.3 43.94 43.94 0 0 1 8.26-13.53 38.11 38.11 0 0 1 12.78-8.8 42.88 42.88 0 0 1 16.52-3.14 41.57 41.57 0 0 1 15.27 2.52 28.2 28.2 0 0 1 6.08 3.14 46 46 0 0 1 5.61 4.41l.63.63-2.19 3.3a2.44 2.44 0 0 1 -2.18 1.1 3.72 3.72 0 0 1 -1.87-.79 11.75 11.75 0 0 0 -2-1.41 16.3 16.3 0 0 0 -3-1.89 33.37 33.37 0 0 0 -4-1.89 24.88 24.88 0 0 0 -5.45-1.41 44 44 0 0 0 -7-.63 33.15 33.15 0 0 0 -13.29 2.52 30 30 0 0 0 -17 18.24 44.42 44.42 0 0 0 -2.48 14.76 45.13 45.13 0 0 0 2.34 15.1 31.58 31.58 0 0 0 6.53 11.18 27.83 27.83 0 0 0 10 6.92 32.05 32.05 0 0 0 12.46 2.36 37.63 37.63 0 0 0 7.64-.63 24.9 24.9 0 0 0 6.08-1.73 40.54 40.54 0 0 0 5.14-2.67 48.48 48.48 0 0 0 4.68-3.78 2.58 2.58 0 0 1 3.42 0l3 3.15-.62.63a42.66 42.66 0 0 1 -5.61 5 31.13 31.13 0 0 1 -6.7 3.77 29.48 29.48 0 0 1 -8 2.36 32.62 32.62 0 0 1 -9.19 1.13zm1.71-83.5a39 39 0 0 0 -15.74 3 33 33 0 0 0 -12.15 8.33 37.39 37.39 0 0 0 -8 12.9 47.29 47.29 0 0 0 -2.81 16.67 48.18 48.18 0 0 0 2.86 16.81 39.28 39.28 0 0 0 7.63 12.9 34.18 34.18 0 0 0 11.69 8.17 38.42 38.42 0 0 0 15 2.83 53.89 53.89 0 0 0 9-.78 27.75 27.75 0 0 0 7.48-2.36 26.76 26.76 0 0 0 6.24-3.62 39.62 39.62 0 0 0 4.67-4.09l-1.71-1.88a.29.29 0 0 0 -.47 0c-.16 0-.31.15-.47.31a38.44 38.44 0 0 1 -5 3.93 37 37 0 0 1 -5.45 3 29.16 29.16 0 0 1 -6.39 1.73 57.5 57.5 0 0 1 -7.95.63 36.6 36.6 0 0 1 -13.24-2.52 31.46 31.46 0 0 1 -10.6-7.39 35.14 35.14 0 0 1 -7-11.79 50.2 50.2 0 0 1 0-31.29 33.06 33.06 0 0 1 7.17-11.8 31 31 0 0 1 10.9-7.55 36.38 36.38 0 0 1 13.87-2.67 35.51 35.51 0 0 1 7.33.63 42.68 42.68 0 0 1 5.76 1.57 22.54 22.54 0 0 1 4.37 2 31.06 31.06 0 0 1 3 2c.78.63 1.56 1.1 2 1.57s.77.47.77.47c.47 0 .63-.15.63-.31l1.24-1.89a46.22 46.22 0 0 0 -4.67-3.61 28.26 28.26 0 0 0 -5.77-3 41 41 0 0 0 -6.7-1.89 21.33 21.33 0 0 0 -7.48-1.1z"/><path d="m880.55 925.29v4.87h-42.55v33h35.38v4.72h-35.38v34h42.54v4.88h-48.45v-81.47z"/><path d="m881.49 1007.85h-50.34v-83.5h50.34v6.76h-42.49v31h35.37v6.76h-35.37v32.08h42.54zm-48.49-1.85h46.6v-3h-42.52v-36h35.37v-2.83h-35.37v-34.95h42.54v-3h-46.62z"/><path d="m953 924.35v12.42h-36.6v24.69h30.85v12.42h-30.85v34h-15.4v-83.38h52zm89.63 41.65a46.4 46.4 0 0 1 -3 17 39.16 39.16 0 0 1 -8.58 13.53 39.57 39.57 0 0 1 -13.24 9 43.29 43.29 0 0 1 -17.14 3.14 46.37 46.37 0 0 1 -17.15-3.14 39.19 39.19 0 0 1 -21.77-22.53 50.18 50.18 0 0 1 0-34 39.14 39.14 0 0 1 8.57-13.53 41.25 41.25 0 0 1 13.24-9 47.12 47.12 0 0 1 34.29.16 41.09 41.09 0 0 1 13.24 9 41.51 41.51 0 0 1 8.58 13.52 48.22 48.22 0 0 1 2.96 16.85zm-15.74 0a37.73 37.73 0 0 0 -1.87-12.27 27.87 27.87 0 0 0 -5.15-9.27 22.41 22.41 0 0 0 -8.25-5.82 30.06 30.06 0 0 0 -21.82 0 23.76 23.76 0 0 0 -8.26 5.82 25.73 25.73 0 0 0 -5.3 9.27 41.16 41.16 0 0 0 0 24.53 25.69 25.69 0 0 0 5.3 9.28 23.85 23.85 0 0 0 8.26 5.82 30.06 30.06 0 0 0 21.82 0 23.72 23.72 0 0 0 8.25-5.82 27.82 27.82 0 0 0 5.15-9.28 37.63 37.63 0 0 0 1.87-12.26zm47.84-1.89h3.58a22.28 22.28 0 0 0 7.69-1.11 15.68 15.68 0 0 0 5.3-3 11.39 11.39 0 0 0 3.12-4.56 17.6 17.6 0 0 0 1.09-5.82c0-4.24-1.41-7.54-4.21-9.75s-7-3.45-12.62-3.45h-10v71.39h-15.43v-83.31h25.25a55.53 55.53 0 0 1 14.49 1.73 26.12 26.12 0 0 1 9.82 4.88 18.79 18.79 0 0 1 5.61 7.55 24.6 24.6 0 0 1 1.87 9.75 27 27 0 0 1 -1.25 8 21.52 21.52 0 0 1 -3.58 6.76 23.7 23.7 0 0 1 -5.77 5.34 25 25 0 0 1 -7.79 3.62 15.81 15.81 0 0 1 5 4.72l20.73 30.82h-13.87a7.24 7.24 0 0 1 -3.43-.79 5.57 5.57 0 0 1 -2.34-2.35l-17.3-26.74c-.47-.63-1.4-2-2.34-2.2h-5.45v-10.04c.16-1.42 1.87-1.42 1.87-1.42zm88 32.24a38.57 38.57 0 0 0 9-.94 41.18 41.18 0 0 0 7.32-2.68v-18.85h-10.28a3.8 3.8 0 0 1 -2.34-.78 2.8 2.8 0 0 1 -.94-2.05v-8.81h27.51v37.43a34.6 34.6 0 0 1 -6.54 3.93 50.23 50.23 0 0 1 -7.33 2.83 45.43 45.43 0 0 1 -8.26 1.58 90.69 90.69 0 0 1 -9.5.47 44.27 44.27 0 0 1 -16.68-3.15 36.47 36.47 0 0 1 -13.09-8.8 42.19 42.19 0 0 1 -8.73-13.53 47.31 47.31 0 0 1 -3.11-17.14 47.93 47.93 0 0 1 3-17.3 39 39 0 0 1 8.54-13.56 38.44 38.44 0 0 1 13.56-8.81 49.09 49.09 0 0 1 17.76-3.14c6.7 0 12.63.94 17.46 3a41.12 41.12 0 0 1 12.46 7.86l-4.54 7.09a4.11 4.11 0 0 1 -3.43 2.2 5 5 0 0 1 -2.81-1c-1.25-.78-2.49-1.41-3.74-2.2a17.78 17.78 0 0 0 -4.21-1.89 40.35 40.35 0 0 0 -5.14-1.25 41.35 41.35 0 0 0 -6.7-.47 27.67 27.67 0 0 0 -11.06 2 22.8 22.8 0 0 0 -8.42 6 25.73 25.73 0 0 0 -5.3 9.27 37.16 37.16 0 0 0 -1.87 12.11 36.55 36.55 0 0 0 2 12.9 27.86 27.86 0 0 0 5.61 9.43 25.65 25.65 0 0 0 8.57 6 29.22 29.22 0 0 0 11.22 2.2zm84.62-22.17h-25.09v21.07h36.47v12.42h-52v-83.32h52v12.42h-36.63v25.63h28.9v9.12s-.15 2.68-3.58 2.68z"/><path d="m283.92 660.59a49.78 49.78 0 0 1 -18.92-18.59 54.62 54.62 0 0 1 0-53.54 49.88 49.88 0 0 1 18.92-18.46 55.11 55.11 0 0 1 52.45 0 48.89 48.89 0 0 1 18.79 18.5 55.42 55.42 0 0 1 -.07 53.54 49.48 49.48 0 0 1 -18.79 18.57 55 55 0 0 1 -52.38 0zm45.66-24q7.31-8.1 7.3-21.39 0-13.44-7.3-21.46t-19.43-8q-12.28 0-19.58 7.95t-7.3 21.53q0 13.44 7.3 21.46t19.58 8q12.14.01 19.43-8.08z"/><path d="m447.57 613.55a29.81 29.81 0 0 1 -12.43 11.78q-8.38 4.47-20.81 4.48h-15.33v36.41h-24.7v-101.44h40q12.14 0 20.52 4.19a28.82 28.82 0 0 1 12.57 11.56 33.64 33.64 0 0 1 4.19 16.91 32.71 32.71 0 0 1 -4.01 16.11zm-24.57-6.72c2.31-2.21 3.47-5.35 3.47-9.39s-1.16-7.18-3.47-9.39-5.83-3.33-10.55-3.33h-13.45v25.43h13.44q7.09 0 10.56-3.32z"/><path d="m487.74 584.58v20.52h33.09v19.07h-33.09v22.25h37.42v19.8h-62.16v-101.44h62.13v19.8z"/><path d="m630.5 666.22h-24.71l-41.32-62.57v62.57h-24.71v-101.44h24.71l41.32 62.86v-62.86h24.71z"/><path d="m692.92 663.62a32.58 32.58 0 0 1 -14.09-10.69 29.25 29.25 0 0 1 -5.56-17h26.3q.57 5.63 3.9 8.59a12.54 12.54 0 0 0 8.67 3c3.66 0 6.55-.85 8.67-2.53a8.46 8.46 0 0 0 3.18-7 8.25 8.25 0 0 0 -2.53-6.21 20.36 20.36 0 0 0 -6.21-4.05 100.5 100.5 0 0 0 -10.48-3.73 115.24 115.24 0 0 1 -16-6.07 29.66 29.66 0 0 1 -10.77-8.93q-4.49-5.93-4.48-15.46 0-14.16 10.26-22.18t26.73-8q16.77 0 27 8t11 22.32h-26.69a10.44 10.44 0 0 0 -3.61-7.73 12.73 12.73 0 0 0 -8.52-2.82 10.63 10.63 0 0 0 -7.23 2.39 8.59 8.59 0 0 0 -2.75 6.86 8.5 8.5 0 0 0 4.63 7.66q4.62 2.75 14.45 5.92a135.38 135.38 0 0 1 16 6.36 30.49 30.49 0 0 1 10.62 8.82q4.47 5.77 4.48 14.88a29.19 29.19 0 0 1 -4.41 15.75 30.84 30.84 0 0 1 -12.82 11.23q-8.38 4.2-19.8 4.19a52.15 52.15 0 0 1 -19.94-3.57z"/><path d="m785.33 660.59a49.78 49.78 0 0 1 -18.93-18.59 54.62 54.62 0 0 1 0-53.54 49.88 49.88 0 0 1 18.93-18.46 55.11 55.11 0 0 1 52.45 0 48.89 48.89 0 0 1 18.79 18.5 55.42 55.42 0 0 1 -.07 53.5 49.48 49.48 0 0 1 -18.79 18.57 55 55 0 0 1 -52.38 0zm45.66-24q7.29-8.1 7.3-21.39 0-13.44-7.3-21.46t-19.43-8q-12.28 0-19.58 7.95t-7.3 21.53q0 13.44 7.3 21.46t19.58 8q12.14.01 19.44-8.08z"/><path d="m900 564.78v60.69q0 9.1 4.48 14t13.15 4.91q8.67 0 13.29-4.91t4.63-14v-60.69h24.71v60.55q0 13.57-5.78 23a37 37 0 0 1 -15.54 14.16 48.82 48.82 0 0 1 -21.74 4.77 47.51 47.51 0 0 1 -21.46-4.7 34.89 34.89 0 0 1 -15-14.16q-5.49-9.45-5.49-23v-60.62z"/><path d="m1027.87 666.22-21.1-38.29h-5.92v38.29h-24.71v-101.44h41.47q12 0 20.45 4.19a28.94 28.94 0 0 1 12.64 11.49 32.07 32.07 0 0 1 4.19 16.26 30.22 30.22 0 0 1 -5.7 18.06q-5.71 8-16.84 11.27l23.41 40.17zm-27-55.78h15.32q6.78 0 10.18-3.32t3.4-9.39q0-5.78-3.4-9.11t-10.18-3.32h-15.32z"/><path d="m1071.22 588.55a46.44 46.44 0 0 1 18.13-18.35 52.7 52.7 0 0 1 26.37-6.57q18.08 0 30.93 9.53t17.19 26h-27.16a22 22 0 0 0 -8.6-9.68 24.22 24.22 0 0 0 -12.64-3.32q-11.42 0-18.5 7.94t-7.08 21.25q0 13.29 7.08 21.24t18.5 7.95a24.13 24.13 0 0 0 12.64-3.33 21.94 21.94 0 0 0 8.6-9.68h27.16q-4.33 16.47-17.19 25.94t-30.93 9.46a52.7 52.7 0 0 1 -26.37-6.57 46.59 46.59 0 0 1 -18.13-18.28 58.38 58.38 0 0 1 0-53.54z"/><path d="m1202.28 584.58v20.52h33.09v19.07h-33.09v22.25h37.43v19.8h-62.14v-101.44h62.14v19.8z"/><path d="m348.8 708.68v20.52h33.09v19.07h-33.09v22.25h37.43v19.8h-62.14v-101.44h62.14v19.8z"/><path d="m463 790.32-20.66-31.07-18.21 31.07h-28l32.51-51.59-33.23-49.85h28.75l20.38 30.63 17.92-30.63h28l-32.27 51.12 33.52 50.29z"/><path d="m505 712.65a46.47 46.47 0 0 1 18.14-18.35 52.65 52.65 0 0 1 26.37-6.57q18.06 0 30.92 9.53t17.2 26h-27.17a22 22 0 0 0 -8.59-9.68 24.25 24.25 0 0 0 -12.65-3.32q-11.41 0-18.5 7.94t-7.07 21.25q0 13.29 7.07 21.24t18.5 7.95a24.16 24.16 0 0 0 12.65-3.33 21.92 21.92 0 0 0 8.59-9.68h27.17q-4.33 16.47-17.2 25.94t-30.92 9.43a52.65 52.65 0 0 1 -26.37-6.57 46.62 46.62 0 0 1 -18.14-18.24 58.38 58.38 0 0 1 0-53.54z"/><path d="m636.07 708.68v20.52h33.09v19.07h-33.09v22.25h37.42v19.8h-62.13v-101.44h62.13v19.8z"/><path d="m712.79 771.25h32.37v19.07h-57.08v-101.44h24.71z"/><path d="m780.27 771.25h32.37v19.07h-57.08v-101.44h24.71z"/><path d="m847.75 708.68v20.52h33.09v19.07h-33.09v22.25h37.43v19.8h-62.18v-101.44h62.14v19.8z"/><path d="m990.52 790.32h-24.71l-41.33-62.57v62.57h-24.71v-101.44h24.71l41.33 62.86v-62.86h24.71z"/><path d="m1009.3 712.65a46.47 46.47 0 0 1 18.14-18.35 52.65 52.65 0 0 1 26.37-6.57q18.06 0 30.92 9.53t17.2 26h-27.17a21.93 21.93 0 0 0 -8.6-9.68 24.22 24.22 0 0 0 -12.64-3.32q-11.41 0-18.5 7.94t-7.08 21.25q0 13.29 7.08 21.24t18.5 7.95a24.13 24.13 0 0 0 12.64-3.33 21.88 21.88 0 0 0 8.6-9.68h27.17q-4.34 16.47-17.2 25.94t-30.92 9.43a52.65 52.65 0 0 1 -26.37-6.57 46.62 46.62 0 0 1 -18.14-18.28 58.38 58.38 0 0 1 0-53.54z"/><path d="m1140.36 708.68v20.52h33.09v19.07h-33.09v22.25h37.43v19.8h-62.14v-101.44h62.14v19.8z"/><path d="m721.49 220.91c13 9.81 22.79 21.29 28.48 35.88 6 15.41 4.15 30-5.22 43.59-4 5.81-8.69 11.17-12.94 16.83-6.22 8.27-10.66 17.25-10.95 30.1 4.82-6.19 8.22-11.05 12.12-15.49 9.53-10.85 19.65-21.2 28.87-32.3 25.76-31 26.58-63.8 2.86-96.37-1-1.35-2-2.71-4-5.43 3.07.85 4.78 1.08 6.28 1.77 34.34 15.75 52.11 49 44.26 82.78-3.14 13.49-10.79 24.27-20.71 33.43-8.52 7.88-18.07 14.69-26.28 22.86-9.17 9.13-17.17 19.42-26.07 28.84-2.16 2.28-5.81 4.3-8.84 4.41-13.3.48-26.63 0-39.94.33-5.59.15-8.67-1.81-11.26-6.74-14.13-26.87-11-58.73 8.52-81.88a101.48 101.48 0 0 1 11.2-11.6c15.53-13.33 27.13-28.38 23.62-51.01z"/><path d="m682.68 417.31v-29.37h121.47v29.37z"/><path d="m751.87 369.74c5.55-6.17 10.58-12.95 16.79-18.36 7.63-6.65 16.09-12.39 24.49-18.09 13.89-9.42 26.78-19.71 33.87-36.37 9.37 23.59-.68 59.23-19.87 72.94-1.12.8-2.45 1.84-3.69 1.85-16.79.12-33.58.08-50.37.08z"/><path d="m728.57 501.55v-72.32h29.54v72.32z"/></g></svg>