<svg viewBox="0 0 1500 1500" xmlns="http://www.w3.org/2000/svg" xmlns:xlink="http://www.w3.org/1999/xlink"><linearGradient id="a" gradientUnits="userSpaceOnUse" x1="1319.56" x2="767.63" y1="2408.53" y2="1079.66"><stop offset="0" stop-color="#414042"/><stop offset="1" stop-color="#231f20"/></linearGradient><path d="m1421.26 990.41h-1342.52l121.99-67.08h1098.54z"/><path d="m1374.25 832.18 64.21-82.18-64.21-82.18 40.75-96.01-83.29-62.76 14.51-103.28-96.69-39.07-12.71-103.51-103.52-12.72-39.07-96.69-103.28 14.51-62.76-83.29-96.01 40.75-82.18-64.21-82.18 64.21-96.01-40.75-62.76 83.29-103.28-14.51-36.75 90.96-105.83 18.45-18.45 105.83-90.96 36.75 13.65 97.15-82.43 68.89 34.87 95.23-58.33 82.96 58.33 82.96-34.87 95.23 77.81 65.03-9.03 101.01 91.99 42.68 17.42 99.91 99.9 17.41 42.68 91.99 101.01-9.03 65.03 77.81 95.23-34.87 82.96 58.33 82.96-58.33 95.23 34.87 65.03-77.81 101.01 9.03 45.21-97.45 97.38-11.95 11.95-97.38 97.45-45.21-9.57-107 78.35-59.04z" fill="#303030"/><circle cx="750" cy="750" opacity=".41" r="511.86" transform="matrix(.70710678 -.70710678 .70710678 .70710678 -310.66 750)"/><circle cx="750" cy="750" fill="#ff6700" r="479.87" transform="matrix(.70710678 -.70710678 .70710678 .70710678 -310.66 750)"/><path d="m1421.26 990.41h-1342.52l33.72 166.59a168 168 0 0 0 164.67 134.67h945.74a168 168 0 0 0 164.67-134.67z" fill="url(#a)"/><path d="m345.4 1144.27c0-30-10.59-43.72-16.2-48.91a1.6 1.6 0 0 0 -2.65 1.42c1.09 17-20.11 21.23-20.11 47.8v.16c0 16.2 12.16 29.41 27.12 29.41s27.11-13.21 27.11-29.41v-.16c0-7.54-2.8-14.78-5.61-20.12-.62-1.1-2.18-.63-2 .31 5.12 22.96-7.66 37.11-7.66 19.5z" fill="#ff6700"/><path d="m313.14 1207.64a2.88 2.88 0 0 1 -1.87-.78l-69.34-70a2.87 2.87 0 0 1 0-3.77l73.24-73.91a3.21 3.21 0 0 1 1.71-.63h21a2.45 2.45 0 0 1 2.34 1.57 2.57 2.57 0 0 1 -.62 2.83l-68.73 69.51a3.54 3.54 0 0 0 0 5l54.39 55a2.89 2.89 0 0 1 0 3.77l-10.4 10.77a3.21 3.21 0 0 1 -1.72.63zm13.86 12.27a2.46 2.46 0 0 1 -2.33-1.57 2.54 2.54 0 0 1 .62-2.83l68.89-69.51a3.74 3.74 0 0 0 1.09-2.52 3.13 3.13 0 0 0 -1.09-2.51l-54.54-55a2.88 2.88 0 0 1 0-3.78l10.59-10.69a2.57 2.57 0 0 1 1.87-.78 2.39 2.39 0 0 1 1.72.94l69.19 70a2.67 2.67 0 0 1 0 3.77l-73.24 73.91a2.58 2.58 0 0 1 -1.87.79h-20.9z" fill="#ff6700"/><g fill="#fff"><path d="m501.71 1108.89a1.56 1.56 0 0 1 -1.56.94 2.94 2.94 0 0 1 -1.87-1.1 18 18 0 0 0 -3.12-2.36 18.59 18.59 0 0 0 -5-2.36 21 21 0 0 0 -7.48-1.1 23.8 23.8 0 0 0 -7.8 1.26 17 17 0 0 0 -5.61 3.46 13.86 13.86 0 0 0 -3.42 5 15.77 15.77 0 0 0 -1.25 6 13.38 13.38 0 0 0 1.71 6.92 14.5 14.5 0 0 0 4.68 4.56 25.12 25.12 0 0 0 6.54 3.14c2.5 1 5 1.73 7.48 2.52a70.45 70.45 0 0 1 7.48 2.83 29.78 29.78 0 0 1 6.55 3.77 16.58 16.58 0 0 1 4.68 5.66 18.92 18.92 0 0 1 1.71 8.34 27.58 27.58 0 0 1 -1.71 9.59 21.89 21.89 0 0 1 -5 7.86 26.75 26.75 0 0 1 -8.11 5.35 29.89 29.89 0 0 1 -10.9 1.89 30.63 30.63 0 0 1 -13.72-2.83 32.73 32.73 0 0 1 -10.13-7.87l1.56-2.51a1.73 1.73 0 0 1 1.56-.79 1.88 1.88 0 0 1 1.25.63c.46.47 1.24 1.1 1.87 1.73.78.63 1.71 1.42 2.8 2.2a21.3 21.3 0 0 0 3.74 2.2 28.35 28.35 0 0 0 4.83 1.73 25 25 0 0 0 6.24.63 24 24 0 0 0 8.57-1.41 20.29 20.29 0 0 0 6.39-3.93 17.83 17.83 0 0 0 4.05-6 20.16 20.16 0 0 0 1.4-7.39 14 14 0 0 0 -1.71-7.08 13.43 13.43 0 0 0 -4.68-4.71 25.46 25.46 0 0 0 -6.54-3.15c-2.5-.79-5-1.73-7.48-2.52s-5-1.73-7.48-2.67a24.54 24.54 0 0 1 -6.55-3.77 19.12 19.12 0 0 1 -4.67-5.82 20.43 20.43 0 0 1 -1.72-8.81 19.69 19.69 0 0 1 1.56-7.86 21.22 21.22 0 0 1 4.52-6.76 24.5 24.5 0 0 1 7.32-4.72 28.28 28.28 0 0 1 10-1.73 29.44 29.44 0 0 1 11.37 2 31.39 31.39 0 0 1 9.2 6.14z"/><path d="m479.42 1182.48a30.57 30.57 0 0 1 -14.18-3 34.61 34.61 0 0 1 -10.44-8l-.47-.48 2-3.14a2.88 2.88 0 0 1 2.34-1.26 2.69 2.69 0 0 1 1.87.94c.47.48 1.24 1.1 2 1.73s1.72 1.42 2.65 2.21a19.73 19.73 0 0 0 3.59 2 20.18 20.18 0 0 0 4.67 1.57 23.42 23.42 0 0 0 6.08.63 22.26 22.26 0 0 0 8.26-1.41 20.16 20.16 0 0 0 6.08-3.78 15.56 15.56 0 0 0 3.74-5.66 17.91 17.91 0 0 0 1.24-7.08 12.18 12.18 0 0 0 -1.55-6.6 14.65 14.65 0 0 0 -4.37-4.4 25.13 25.13 0 0 0 -6.23-3c-2.34-.79-4.83-1.73-7.48-2.52s-5.14-1.73-7.48-2.67a27.88 27.88 0 0 1 -6.7-3.93 18.54 18.54 0 0 1 -4.83-6.14 20.14 20.14 0 0 1 -1.87-9.12 21.94 21.94 0 0 1 1.55-8.33 21.69 21.69 0 0 1 4.68-7.08 23.72 23.72 0 0 1 7.64-4.87 26.6 26.6 0 0 1 10.28-1.89 30.35 30.35 0 0 1 11.69 2 30.76 30.76 0 0 1 9.5 6.44l.47.47-1.71 3.31c-.94 1.73-2.65 2.2-4.83.15a22 22 0 0 0 -3.12-2.2 36.42 36.42 0 0 0 -4.83-2.36 22.18 22.18 0 0 0 -7.17-1.1 21.86 21.86 0 0 0 -7.48 1.26 15.27 15.27 0 0 0 -5.3 3.3 16.14 16.14 0 0 0 -3.27 4.72 14.09 14.09 0 0 0 -1.09 5.66 11.06 11.06 0 0 0 1.56 6.29 14.64 14.64 0 0 0 4.36 4.41 33.59 33.59 0 0 0 6.23 3.14c2.34.79 4.83 1.73 7.48 2.52a59.38 59.38 0 0 1 7.48 2.83 28 28 0 0 1 6.71 3.93 18.25 18.25 0 0 1 4.83 6 18.94 18.94 0 0 1 1.87 8.81 27.56 27.56 0 0 1 -1.87 10.06 23.81 23.81 0 0 1 -5.3 8.18 26.17 26.17 0 0 1 -8.42 5.51 30.92 30.92 0 0 1 -10.91 1.88zm-22.59-11.79a29.13 29.13 0 0 0 22.75 9.91 28.28 28.28 0 0 0 10.6-1.89 24.91 24.91 0 0 0 7.79-5 22.47 22.47 0 0 0 4.83-7.55 25.86 25.86 0 0 0 1.71-9.28 20.49 20.49 0 0 0 -1.55-8 16.28 16.28 0 0 0 -4.37-5.35 34.83 34.83 0 0 0 -6.23-3.77c-2.34-.94-4.83-1.89-7.33-2.83s-5-1.73-7.48-2.52a38 38 0 0 1 -6.7-3.3 16.13 16.13 0 0 1 -4.83-4.87 13.4 13.4 0 0 1 -1.87-7.4 18.17 18.17 0 0 1 1.25-6.44 14 14 0 0 1 3.6-5.4 15.23 15.23 0 0 1 5.92-3.62 22.08 22.08 0 0 1 8.11-1.25 23.22 23.22 0 0 1 7.79 1.1 24.58 24.58 0 0 1 8.42 5c.93.79 1.24.79 1.24.79a.59.59 0 0 0 .63-.48l1.09-2a28.06 28.06 0 0 0 -8.26-5.5 30 30 0 0 0 -10.91-1.89 26.45 26.45 0 0 0 -9.66 1.73 22.3 22.3 0 0 0 -7 4.4 18.94 18.94 0 0 0 -5.76 14 18.84 18.84 0 0 0 1.71 8.33 15.25 15.25 0 0 0 4.37 5.51 27 27 0 0 0 6.23 3.61c2.34 1 4.83 1.89 7.32 2.68s5 1.57 7.48 2.51a29.44 29.44 0 0 1 6.7 3.3 13.59 13.59 0 0 1 4.84 5 14.49 14.49 0 0 1 1.87 7.7 21.83 21.83 0 0 1 -1.41 7.86 15.85 15.85 0 0 1 -4.2 6.29 22.3 22.3 0 0 1 -6.71 4.25 26.34 26.34 0 0 1 -8.88 1.57 28.73 28.73 0 0 1 -6.54-.78 31.4 31.4 0 0 1 -5-1.73 16.35 16.35 0 0 1 -3.9-2.36c-1.09-.79-2-1.57-2.8-2.2a23 23 0 0 1 -1.87-1.73c-.47-.48-.78-.48-.78-.48a.84.84 0 0 0 -.78.48z"/><path d="m594.43 1139.71a50 50 0 0 1 -2.8 17.14 37.3 37.3 0 0 1 -8 13.21 36.89 36.89 0 0 1 -12.15 8.49 42.53 42.53 0 0 1 -31.33 0 34.72 34.72 0 0 1 -12.15-8.49 37.3 37.3 0 0 1 -7.95-13.21 53.68 53.68 0 0 1 0-34.28 37.3 37.3 0 0 1 7.95-13.21 36.79 36.79 0 0 1 12.15-8.49 42.53 42.53 0 0 1 31.33 0 34.81 34.81 0 0 1 12.15 8.49 37.3 37.3 0 0 1 8 13.21 50 50 0 0 1 2.8 17.14zm-6.07 0a47.67 47.67 0 0 0 -2.36-15.41 32.84 32.84 0 0 0 -6.55-11.48 28.35 28.35 0 0 0 -10.28-7.23 36.09 36.09 0 0 0 -26.5 0 28.35 28.35 0 0 0 -10.28 7.23 33.1 33.1 0 0 0 -6.7 11.48 47 47 0 0 0 -2.34 15.41 47.67 47.67 0 0 0 2.34 15.41 30.93 30.93 0 0 0 6.7 11.48 28.35 28.35 0 0 0 10.28 7.23 33.22 33.22 0 0 0 13.25 2.52 32.69 32.69 0 0 0 13.25-2.52 26.55 26.55 0 0 0 10.28-7.23 32.84 32.84 0 0 0 6.55-11.48 47 47 0 0 0 2.36-15.41z"/><path d="m555.94 1182.33a42.86 42.86 0 0 1 -15.89-3 35 35 0 0 1 -12.47-8.65 39 39 0 0 1 -8.11-13.53 51.78 51.78 0 0 1 -3-17.45 48.41 48.41 0 0 1 3-17.46 40.53 40.53 0 0 1 8.11-13.52 35 35 0 0 1 12.47-8.65 40.47 40.47 0 0 1 15.89-3.14 43.72 43.72 0 0 1 16 3 35.13 35.13 0 0 1 12.47 8.65 40.56 40.56 0 0 1 8.1 13.53 55.62 55.62 0 0 1 0 34.91 40.41 40.41 0 0 1 -8.1 13.52 34.88 34.88 0 0 1 -12.47 8.65 38.53 38.53 0 0 1 -16 3.14zm0-83.35a37.73 37.73 0 0 0 -15.27 3 34.33 34.33 0 0 0 -19.48 21.02 51.78 51.78 0 0 0 0 33.65 39 39 0 0 0 7.64 12.9 34.85 34.85 0 0 0 11.84 8.18 42.61 42.61 0 0 0 30.54 0 35 35 0 0 0 11.85-8.18 35.92 35.92 0 0 0 7.63-12.74 51.78 51.78 0 0 0 0-33.65 39.28 39.28 0 0 0 -7.63-12.9 34.82 34.82 0 0 0 -11.85-8.17 34.4 34.4 0 0 0 -15.27-3.09z"/><path d="m640.72 1176.35a24.89 24.89 0 0 0 10.44-2 23 23 0 0 0 12.62-14.16 33.41 33.41 0 0 0 1.72-10.69v-50.5h5.76v50.48a36.8 36.8 0 0 1 -2.18 12.58 30.6 30.6 0 0 1 -6.08 10.22 28.27 28.27 0 0 1 -9.66 6.76 32.94 32.94 0 0 1 -12.78 2.52 30.05 30.05 0 0 1 -22.44-9.28 29.25 29.25 0 0 1 -6.12-10.28 37.49 37.49 0 0 1 -2.18-12.58v-50.42h5.92v50.32a34.22 34.22 0 0 0 1.72 10.7 25 25 0 0 0 4.83 8.49 23.78 23.78 0 0 0 7.79 5.66 23.33 23.33 0 0 0 10.6 2.2z"/><path d="m640.72 1182.48a31.88 31.88 0 0 1 -13.09-2.51 28.82 28.82 0 0 1 -10-7.08 32.33 32.33 0 0 1 -6.23-10.54 38.61 38.61 0 0 1 -2.18-12.89v-51.46h7.78v51.42a37.76 37.76 0 0 0 1.56 10.38 23.53 23.53 0 0 0 4.67 8.18 22.34 22.34 0 0 0 7.48 5.5 25.1 25.1 0 0 0 10 2 24.66 24.66 0 0 0 10-1.88 20.2 20.2 0 0 0 7.48-5.51 24.78 24.78 0 0 0 4.68-8.17 31.58 31.58 0 0 0 1.56-10.38v-51.54h7.79v51.42a38.61 38.61 0 0 1 -2.18 12.89 32.53 32.53 0 0 1 -6.24 10.54 28.88 28.88 0 0 1 -10 7.08 31.91 31.91 0 0 1 -13.09 2.51zm-29.72-82.56v49.54a35 35 0 0 0 2 12.27 28.81 28.81 0 0 0 5.92 9.9 25.4 25.4 0 0 0 9.35 6.61 31 31 0 0 0 12.47 2.36 32.05 32.05 0 0 0 12.46-2.36 26.83 26.83 0 0 0 9.36-6.61 31.73 31.73 0 0 0 5.92-9.9 35 35 0 0 0 2-12.27v-49.54h-3.89v49.54a36.21 36.21 0 0 1 -1.72 11 23.2 23.2 0 0 1 -5.14 9 23.78 23.78 0 0 1 -8.1 6 26.41 26.41 0 0 1 -10.76 2.2 25.85 25.85 0 0 1 -10.75-2.2 23.68 23.68 0 0 1 -8.1-6 25.13 25.13 0 0 1 -5-9 35.49 35.49 0 0 1 -1.71-11v-49.54z"/><path d="m704.77 1139.24h4.83a35.85 35.85 0 0 0 9.66-1.26 19.42 19.42 0 0 0 7.17-3.77 16.33 16.33 0 0 0 4.52-5.82 17.48 17.48 0 0 0 1.56-7.71c0-5.82-1.87-10.06-5.61-12.89s-9.2-4.25-16.52-4.25h-14.81v77.06h-5.76v-81.6h20.57c9.35 0 16.36 1.89 20.88 5.5 4.68 3.62 6.86 9 6.86 16a21.19 21.19 0 0 1 -1.56 8.5 20.23 20.23 0 0 1 -4.68 6.76 22.71 22.71 0 0 1 -7.16 4.72 35.48 35.48 0 0 1 -9.51 2.51 12 12 0 0 1 2.49 2.36l27.9 35.23h-5.15a4.44 4.44 0 0 1 -1.55-.32 2.79 2.79 0 0 1 -1.25-1.1l-25.87-33a6.4 6.4 0 0 0 -2-1.73c-.77-.32-5.29-.47-6.85-.47 0-4.25.62-4.72 1.87-4.72z"/><path d="m747.62 1181.54h-7a4.37 4.37 0 0 1 -2-.47 4.43 4.43 0 0 1 -1.55-1.42l-25.87-33a5.11 5.11 0 0 0 -1.72-1.57 50.3 50.3 0 0 0 -6.39-.48h-.93v-4.08c0-1.42.31-2.21 2.8-2.21h5a34.73 34.73 0 0 0 9.35-1.25 19.21 19.21 0 0 0 6.86-3.62 14.47 14.47 0 0 0 4.21-5.5 18.26 18.26 0 0 0 1.4-7.24c0-5.5-1.72-9.43-5.3-12.11s-8.88-4.09-15.9-4.09h-13.92v76.9h-7.79v-83.4h21.66q14.26 0 21.51 5.66c4.83 3.77 7.32 9.43 7.32 16.82a23.58 23.58 0 0 1 -1.71 9 22 22 0 0 1 -4.83 7.07 28.63 28.63 0 0 1 -7.48 5 36.3 36.3 0 0 1 -7.64 2.2 6.71 6.71 0 0 1 .94 1.1zm-43.79-38.84c1.72 0 5.3.15 6.24.63a7.6 7.6 0 0 1 2.49 2l25.87 33a2.63 2.63 0 0 0 .93.95 2.26 2.26 0 0 0 1.09.31h3.12l-26.65-33.59a6.63 6.63 0 0 0 -2.18-2l-2.34-1.42 2.81-.31a27.62 27.62 0 0 0 16.21-6.92 18.2 18.2 0 0 0 4.36-6.45 23.25 23.25 0 0 0 1.56-8.18c0-6.76-2.18-11.79-6.55-15.25s-11.22-5.19-20.26-5.19h-19.63v79.41h3.89v-77.09h15.74c7.33 0 13.09 1.41 17 4.4q6.08 4.49 6.08 13.68a21.7 21.7 0 0 1 -1.56 8 16.44 16.44 0 0 1 -4.83 6.13 21.38 21.38 0 0 1 -7.48 3.94 32.69 32.69 0 0 1 -10 1.41h-4.83c-.46 0-.93 0-1.09 2.52z"/><path d="m814 1166.76a1.11 1.11 0 0 1 .94.47l2.33 2.52a40.15 40.15 0 0 1 -5.45 4.87 33.36 33.36 0 0 1 -6.55 3.62 54.47 54.47 0 0 1 -7.63 2.36 43.29 43.29 0 0 1 -9.2.78 37.91 37.91 0 0 1 -15.42-3 32.65 32.65 0 0 1 -12-8.49 39.22 39.22 0 0 1 -7.8-13.21 50 50 0 0 1 -2.8-17.14 46.2 46.2 0 0 1 3-17 39 39 0 0 1 8.1-13.21 36.61 36.61 0 0 1 12.47-8.49 41 41 0 0 1 16-3 43.77 43.77 0 0 1 8.11.63 43.11 43.11 0 0 1 6.85 1.89 26.4 26.4 0 0 1 5.92 3.14 46.36 46.36 0 0 1 5.46 4.25l-1.72 2.51a1.51 1.51 0 0 1 -1.4.63 1.84 1.84 0 0 1 -1.24-.63c-.47-.47-1.25-.94-2-1.57a24.6 24.6 0 0 0 -3-1.89 13.26 13.26 0 0 0 -4.21-1.88 36.11 36.11 0 0 0 -5.61-1.58 33.07 33.07 0 0 0 -7.17-.62 34.21 34.21 0 0 0 -13.56 2.51 29.44 29.44 0 0 0 -10.59 7.39 35.6 35.6 0 0 0 -7 11.48 42.38 42.38 0 0 0 -2.49 15.26 43.3 43.3 0 0 0 2.49 15.41 33.65 33.65 0 0 0 6.86 11.48 30.86 30.86 0 0 0 23.06 9.75 39.29 39.29 0 0 0 7.8-.63 24.68 24.68 0 0 0 6.23-1.73 28.76 28.76 0 0 0 5.3-2.83 27.82 27.82 0 0 0 4.83-3.94c.16-.15.31-.31.47-.31.16.35.48.2.62.2z"/><path d="m788.3 1182.48a42 42 0 0 1 -15.74-3 34.43 34.43 0 0 1 -12.31-8.65 38.73 38.73 0 0 1 -8-13.53 51.85 51.85 0 0 1 -2.81-17.45 47.54 47.54 0 0 1 3-17.3 43.77 43.77 0 0 1 8.26-13.52 38 38 0 0 1 12.78-8.81 42.88 42.88 0 0 1 16.52-3.15 41.57 41.57 0 0 1 15.27 2.52 27.79 27.79 0 0 1 6.08 3.15 44.89 44.89 0 0 1 5.61 4.4l.63.63-2.19 3.3a2.44 2.44 0 0 1 -2.18 1.1 3.63 3.63 0 0 1 -1.87-.79 11.75 11.75 0 0 0 -2-1.41 16.3 16.3 0 0 0 -3-1.89 33.37 33.37 0 0 0 -4-1.89 25.45 25.45 0 0 0 -5.45-1.41 44 44 0 0 0 -7-.63 33.15 33.15 0 0 0 -13.25 2.52 30 30 0 0 0 -17 18.24 44.42 44.42 0 0 0 -2.49 14.78 45.13 45.13 0 0 0 2.34 15.1 31.58 31.58 0 0 0 6.5 11.21 27.83 27.83 0 0 0 10 6.92 32.05 32.05 0 0 0 12.46 2.36 37.63 37.63 0 0 0 7.64-.63 24.47 24.47 0 0 0 6.08-1.73 40.54 40.54 0 0 0 5.14-2.67 47.2 47.2 0 0 0 4.67-3.78 2.25 2.25 0 0 1 .78-.47 2.15 2.15 0 0 1 2.65.47l3 3.15-.62.63a42.66 42.66 0 0 1 -5.61 5 31.13 31.13 0 0 1 -6.7 3.77 29.48 29.48 0 0 1 -8 2.36 32.62 32.62 0 0 1 -9.19 1.1zm1.7-83.48a39 39 0 0 0 -15.74 3 33.14 33.14 0 0 0 -12.15 8.33 37.39 37.39 0 0 0 -8 12.9 47.29 47.29 0 0 0 -2.81 16.67 48.18 48.18 0 0 0 2.81 16.82 39.17 39.17 0 0 0 7.63 12.9 34.35 34.35 0 0 0 11.69 8.18 38.6 38.6 0 0 0 15 2.83 53.85 53.85 0 0 0 9-.79 27.75 27.75 0 0 0 7.48-2.36 26.76 26.76 0 0 0 6.24-3.62 39.56 39.56 0 0 0 4.67-4.08l-1.71-1.89a.29.29 0 0 0 -.47 0c-.16 0-.31.16-.47.31a38.44 38.44 0 0 1 -5 3.93 36.1 36.1 0 0 1 -5.45 3 29.16 29.16 0 0 1 -6.39 1.73 57.5 57.5 0 0 1 -7.95.63 36.6 36.6 0 0 1 -13.24-2.52 31.46 31.46 0 0 1 -10.6-7.39 35.14 35.14 0 0 1 -7-11.79 50.2 50.2 0 0 1 0-31.29 33.15 33.15 0 0 1 7.17-11.8 31 31 0 0 1 10.9-7.55 36.38 36.38 0 0 1 13.87-2.67 35.51 35.51 0 0 1 7.33.63 42.68 42.68 0 0 1 5.76 1.57 22.54 22.54 0 0 1 4.37 2 31.06 31.06 0 0 1 3 2c.78.63 1.56 1.1 2 1.57s.78.47.78.47c.47 0 .63-.15.63-.31l1.24-1.89a46.22 46.22 0 0 0 -4.59-3.52 28.77 28.77 0 0 0 -5.77-3 41 41 0 0 0 -6.7-1.89 21.56 21.56 0 0 0 -7.53-1.11z"/><path d="m880.55 1099v4.88h-42.55v33h35.38v4.72h-35.38v34h42.54v4.88h-48.45v-81.48z"/><path d="m881.49 1181.54h-50.34v-83.54h50.34v6.76h-42.49v31h35.37v6.76h-35.37v32.08h42.54zm-48.49-1.89h46.6v-3h-42.52v-36h35.37v-2.83h-35.37v-34.91h42.54v-3h-46.62z"/><path d="m953 1098v12.42h-36.6v24.69h30.85v12.42h-30.85v34h-15.4v-83.35h52zm89.61 41.67a46.4 46.4 0 0 1 -3 17 39.16 39.16 0 0 1 -8.58 13.53 39.57 39.57 0 0 1 -13.24 9 43.29 43.29 0 0 1 -17.14 3.15 46.37 46.37 0 0 1 -17.15-3.15 39.19 39.19 0 0 1 -21.81-22.49 50.18 50.18 0 0 1 0-34 39.14 39.14 0 0 1 8.57-13.53 41.25 41.25 0 0 1 13.24-9 47.12 47.12 0 0 1 34.29.16 39.26 39.26 0 0 1 21.82 22.48 48.27 48.27 0 0 1 3.02 16.89zm-15.74 0a37.73 37.73 0 0 0 -1.87-12.27 27.87 27.87 0 0 0 -5.15-9.27 22.41 22.41 0 0 0 -8.25-5.82 30.06 30.06 0 0 0 -21.82 0 23.76 23.76 0 0 0 -8.26 5.82 25.73 25.73 0 0 0 -5.3 9.27 41.19 41.19 0 0 0 0 24.54 25.73 25.73 0 0 0 5.3 9.27 23.76 23.76 0 0 0 8.26 5.82 30.06 30.06 0 0 0 21.82 0 23.72 23.72 0 0 0 8.25-5.82 27.87 27.87 0 0 0 5.15-9.21 37.73 37.73 0 0 0 1.89-12.29zm47.84-1.89h3.58a22.28 22.28 0 0 0 7.64-1.1 15.51 15.51 0 0 0 5.3-3 11.39 11.39 0 0 0 3.12-4.56 17.59 17.59 0 0 0 1.09-5.81c0-4.25-1.41-7.55-4.21-9.75s-7-3.46-12.62-3.46h-10v71.39h-15.43v-83.35h25.25a55.53 55.53 0 0 1 14.49 1.73 26.42 26.42 0 0 1 9.82 4.88 18.79 18.79 0 0 1 5.61 7.55 24.64 24.64 0 0 1 1.87 9.75 27 27 0 0 1 -1.25 8 21.52 21.52 0 0 1 -3.58 6.76 23.94 23.94 0 0 1 -5.77 5.35 25.2 25.2 0 0 1 -7.79 3.61 15.81 15.81 0 0 1 5 4.72l20.73 30.82h-13.87a7.37 7.37 0 0 1 -3.43-.78 5.66 5.66 0 0 1 -2.34-2.36l-17.3-26.74c-.47-.63-1.4-2-2.34-2.2h-5.45v-10.06c.16-1.42 1.87-1.42 1.87-1.42zm88 32.24a38 38 0 0 0 9-.94 41.18 41.18 0 0 0 7.32-2.68v-18.87h-10.28a3.8 3.8 0 0 1 -2.34-.78 2.8 2.8 0 0 1 -.94-2v-8.8h27.53v37.42a34.6 34.6 0 0 1 -6.54 3.93 50.23 50.23 0 0 1 -7.33 2.83 45.43 45.43 0 0 1 -8.26 1.58 90.69 90.69 0 0 1 -9.5.47 44.27 44.27 0 0 1 -16.68-3.15 36.47 36.47 0 0 1 -13.09-8.8 42.19 42.19 0 0 1 -8.73-13.53 47.27 47.27 0 0 1 -3.11-17.14 47.93 47.93 0 0 1 3-17.3 39.1 39.1 0 0 1 8.57-13.52 38.44 38.44 0 0 1 13.56-8.81 49.09 49.09 0 0 1 17.76-3.14c6.7 0 12.63.94 17.46 3a41.12 41.12 0 0 1 12.46 7.86l-4.51 7.08a4.11 4.11 0 0 1 -3.43 2.2 5 5 0 0 1 -2.81-1c-1.25-.78-2.49-1.41-3.74-2.2a17.37 17.37 0 0 0 -4.21-1.88 38.68 38.68 0 0 0 -5.14-1.26 41.35 41.35 0 0 0 -6.7-.47 27.85 27.85 0 0 0 -11.06 2 22.92 22.92 0 0 0 -8.42 6 25.73 25.73 0 0 0 -5.3 9.27 37.16 37.16 0 0 0 -1.87 12.11 36.55 36.55 0 0 0 2 12.9 27.86 27.86 0 0 0 5.61 9.43 25.65 25.65 0 0 0 8.57 6 29.22 29.22 0 0 0 11.22 2.2zm84.62-22.17h-25.09v21.15h36.47v12.42h-52v-83.42h52v12.42h-36.63v25.63h28.92v9.12s-.15 2.68-3.58 2.68z"/><path d="m511 665v75.25q0 11.29 5.56 17.38t16.3 6.09q10.75 0 16.49-6.09t5.73-17.38v-75.25h30.64v75q0 16.85-7.16 28.49a45.84 45.84 0 0 1 -19.27 17.56 60.58 60.58 0 0 1 -27 5.92 58.94 58.94 0 0 1 -26.61-5.83 43.35 43.35 0 0 1 -18.55-17.56q-6.81-11.73-6.81-28.58v-75z"/><path d="m628 787.52a40.34 40.34 0 0 1 -17.47-13.26q-6.54-8.78-6.9-21.15h32.61q.72 7 4.84 10.66t10.75 3.68q6.81 0 10.75-3.14a10.47 10.47 0 0 0 3.94-8.69 10.32 10.32 0 0 0 -3.13-7.7 25.4 25.4 0 0 0 -7.71-5 124.14 124.14 0 0 0 -13-4.48 141.72 141.72 0 0 1 -19.89-7.53 36.66 36.66 0 0 1 -13.26-11.1q-5.53-7.37-5.53-19.2 0-17.55 12.72-27.5t33.15-10q20.79 0 33.51 10t13.62 27.68h-33.19a13 13 0 0 0 -4.47-9.58 15.81 15.81 0 0 0 -10.58-3.5 13.19 13.19 0 0 0 -9 3q-3.4 3-3.4 8.51 0 6.09 5.73 9.5t17.96 7.28a166.22 166.22 0 0 1 19.8 7.89 37.63 37.63 0 0 1 13.15 10.95q5.55 7.17 5.56 18.45a36.23 36.23 0 0 1 -5.47 19.53 38.18 38.18 0 0 1 -15.86 14q-10.37 5.18-24.53 5.18a64.79 64.79 0 0 1 -24.7-4.48z"/><path d="m748 689.5v25.5h41v23.6h-41v27.59h46.41v24.55h-77.02v-125.74h77.05v24.5z"/><path d="m878.47 790.74-26.16-47.48h-7.31v47.48h-30.68v-125.74h51.43q14.87 0 25.35 5.19a35.82 35.82 0 0 1 15.68 14.25 39.67 39.67 0 0 1 5.2 20.15 37.42 37.42 0 0 1 -7.08 22.41q-7.08 9.85-20.87 14l29 49.81zm-33.47-69.16h19q8.41 0 12.63-4.12t4.21-11.65q0-7.17-4.21-11.29t-12.63-4.12h-19z"/><path d="m951.94 787.52a40.37 40.37 0 0 1 -17.48-13.26q-6.54-8.78-6.89-21.15h32.61q.71 7 4.84 10.66t10.75 3.68q6.81 0 10.75-3.14a10.5 10.5 0 0 0 3.94-8.69 10.29 10.29 0 0 0 -3.14-7.7 25.35 25.35 0 0 0 -7.7-5 125 125 0 0 0 -13-4.48 141.24 141.24 0 0 1 -19.89-7.53 36.66 36.66 0 0 1 -13.26-11.1q-5.55-7.35-5.55-19.18 0-17.55 12.72-27.5t33.15-10q20.78 0 33.5 10t13.62 27.68h-33.14a12.93 12.93 0 0 0 -4.48-9.58 15.78 15.78 0 0 0 -10.57-3.5 13.19 13.19 0 0 0 -9 3q-3.4 3-3.4 8.51 0 6.09 5.73 9.5t17.95 7.26a166.22 166.22 0 0 1 19.8 7.89 37.72 37.72 0 0 1 13.2 10.95q5.55 7.17 5.55 18.45a36.22 36.22 0 0 1 -5.46 19.53 38.25 38.25 0 0 1 -15.86 14q-10.4 5.21-24.55 5.2a64.76 64.76 0 0 1 -24.74-4.5z"/><path d="m506.74 902h30.26v17.84h-53.37v-94.9h23.11z"/><path d="m568.43 914.54a46.46 46.46 0 0 1 -17.7-17.36 51.05 51.05 0 0 1 0-50.07 46.59 46.59 0 0 1 17.7-17.3 51.48 51.48 0 0 1 49.06 0 45.63 45.63 0 0 1 17.57 17.3 51.78 51.78 0 0 1 -.07 50.07 46.05 46.05 0 0 1 -17.57 17.36 51.34 51.34 0 0 1 -49 0zm42.71-22.43q6.83-7.58 6.82-20t-6.82-20.11q-6.82-7.5-18.18-7.5t-18.31 7.5q-6.82 7.44-6.83 20.14t6.83 20.07q6.83 7.5 18.31 7.5t18.18-7.6z"/><path d="m743.38 824.94-33.65 94.87h-28.92l-33.65-94.87h24.59l23.52 71.63 23.65-71.63z"/><path d="m776.09 843.46v19.19h30.91v17.84h-30.91v20.81h35v18.51h-58.09v-94.87h58.11v18.52z"/><path d="m877.44 824.94v56.76q0 8.52 4.19 13.11t12.3 4.6q8.1 0 12.43-4.6t4.33-13.11v-56.76h23.11v56.63q0 12.7-5.41 21.49a34.56 34.56 0 0 1 -14.53 13.24 45.72 45.72 0 0 1 -20.34 4.46 44.52 44.52 0 0 1 -20.07-4.39 32.69 32.69 0 0 1 -14-13.25q-5.15-8.85-5.14-21.55v-56.63z"/><path d="m965.69 917.38a30.33 30.33 0 0 1 -13.18-10 27.3 27.3 0 0 1 -5.2-16h24.6c.36 3.52 1.57 6.2 3.65 8a11.69 11.69 0 0 0 8.1 2.77c3.43 0 6.13-.78 8.11-2.36a7.91 7.91 0 0 0 3-6.56 7.76 7.76 0 0 0 -2.37-5.81 19.08 19.08 0 0 0 -5.81-3.78 93.18 93.18 0 0 0 -9.8-3.38 105 105 0 0 1 -15-5.68 27.63 27.63 0 0 1 -10-8.37q-4.18-5.55-4.19-14.46 0-13.25 9.6-20.75t25-7.5q15.68 0 25.27 7.5t10.25 21h-25a9.8 9.8 0 0 0 -3.38-7.23 11.88 11.88 0 0 0 -8-2.63 9.91 9.91 0 0 0 -6.76 2.23 8.58 8.58 0 0 0 1.76 13.58 70.63 70.63 0 0 0 13.51 5.54 123 123 0 0 1 14.93 5.95 28.51 28.51 0 0 1 9.94 8.24q4.18 5.4 4.19 13.92a27.3 27.3 0 0 1 -4.13 14.73 28.83 28.83 0 0 1 -11.95 10.54 40.88 40.88 0 0 1 -18.52 3.92 48.82 48.82 0 0 1 -18.62-3.41z"/><path d="m712.11 453.34c4.47 9.38 8.14 18.05 12.62 26.3 13.53 24.89 27.37 49.62 41.1 74.42.95 1.72 1.93 3.44 3.15 5.62 5.25-2.89 10.28-5.65 15.31-8.43 24-13.24 47.74-26.89 72-39.63 35.19-18.5 33.19-58.48 12.62-78.29-13.41-12.91-29.37-15.22-46.7-10.13-5.21 1.53-10.17 3.92-15.65 6.07-1.84-2.81-3.77-5.85-5.79-8.84-10.59-15.72-25.46-23.24-44.24-21.35-18.53 1.85-31.64 11.92-39.53 28.81a7.28 7.28 0 0 1 -4.52 3.34c-4.19.93-8.52 1.22-13.24 1.82a25.61 25.61 0 0 1 .55-3.45c7-23.92 22.67-39.19 46.8-44.83 24.32-5.69 45.39 1 62.19 19.68 2.84 3.16 4.9 3.84 9.13 2.69 24.25-6.58 46.09-1.47 63.6 16.64s21.88 39.84 14.89 64.09c-4.77 16.55-15.53 28-30 36.15-30.1 16.91-60.38 33.51-90.62 50.16-8.39 4.63-15.79 2.34-20.49-6.23q-21.3-38.87-42.48-77.78c-4.11-7.56-8.47-15.07-11.73-23-4.41-10.75-4.18-10.25 7.11-13.39a18.87 18.87 0 0 1 3.92-.44z"/><path d="m758.12 534c-3.79-6.85-7-12.22-9.69-17.8-.58-1.18.23-3.13.62-4.67 1.63-6.4 3.72-12.71 5-19.18 3.13-16.47-9.44-34.78-26.49-40.3a38.62 38.62 0 0 0 -45.38 16.79c-2.43 4.11-4.2 8.62-6.51 13.46a38.09 38.09 0 0 1 -4.79-1.27c-22.89-9.18-46.92 2.85-53.13 26.66-4.79 18.35 3.78 37.25 21.72 44.69 19.75 8.2 40 15.12 60.1 22.56 7.6 2.81 15.24 5.49 23.24 8.37 4.94-13.45 9.77-26.63 15-41 3.58 6.52 6.69 12.08 9.65 17.72a4.09 4.09 0 0 1 -.22 2.81c-3.24 9.16-6.24 18.26-9.94 27.16-4.12 10-8.62 12.06-18.71 8.39-29.48-10.72-59.24-20.78-88.16-32.85-18.76-7.83-28.39-24.33-29.86-44.46a54.8 54.8 0 0 1 61.78-58.59c3.64.46 5.21-.88 7.11-3.62 13-18.82 31.3-27 53.8-24 21.57 2.94 36.25 15.62 44.14 35.78 4.47 11.41 3.61 23.25.33 34.79-2.61 9.21-6.06 18.14-9.61 28.56z"/></g></svg>