<svg viewBox="0 0 1500 1500" xmlns="http://www.w3.org/2000/svg" xmlns:xlink="http://www.w3.org/1999/xlink"><linearGradient id="a" gradientUnits="userSpaceOnUse" x1="103.54" x2="1396.46" y1="750" y2="750"><stop offset="0" stop-color="#414042"/><stop offset="1" stop-color="#231f20"/></linearGradient><linearGradient id="b" x1="1319.56" x2="767.63" xlink:href="#a" y1="2346.92" y2="1018.05"/><path d="m1421.26 928.81h-1342.52l121.99-67.09h1098.54z"/><path d="m1373 738.52a24.45 24.45 0 0 1 -1.84-35.31 68.92 68.92 0 0 0 -18-108.11 24.45 24.45 0 0 1 -9.94-33.93 68.92 68.92 0 0 0 -42.49-101 24.45 24.45 0 0 1 -17.51-30.72 68.93 68.93 0 0 0 -64.67-88.49 24.44 24.44 0 0 1 -24.13-25.84 68.93 68.93 0 0 0 -83.42-71.2 24.44 24.44 0 0 1 -29.45-19.57 68.92 68.92 0 0 0 -97.53-50 24.44 24.44 0 0 1 -33.17-12.24 68.94 68.94 0 0 0 -106.44-26.11 24.44 24.44 0 0 1 -35.1-4.25 68.87 68.87 0 0 0 -108-2.76 24.07 24.07 0 0 1 -33.38 3.62 68.87 68.87 0 0 0 -105.06 25.14 24.46 24.46 0 0 1 -33.38 11.69 68.92 68.92 0 0 0 -98.69 47.66 24.45 24.45 0 0 1 -29.8 19.08 68.91 68.91 0 0 0 -85 69.16 24.46 24.46 0 0 1 -24.57 25.44 68.93 68.93 0 0 0 -66.75 86.93 24.45 24.45 0 0 1 -18 30.42 68.92 68.92 0 0 0 -44.88 100 24.44 24.44 0 0 1 -10.51 33.76 68.93 68.93 0 0 0 -20.57 107.65 24.45 24.45 0 0 1 -2.43 35.28 68.93 68.93 0 0 0 4.85 109.49 24.46 24.46 0 0 1 5.78 34.89 68.92 68.92 0 0 0 30 105.41 24.45 24.45 0 0 1 13.68 32.61 68.93 68.93 0 0 0 53.53 95.64 24.44 24.44 0 0 1 20.87 28.55 68.92 68.92 0 0 0 74.17 80.69 24.47 24.47 0 0 1 26.88 23 68.93 68.93 0 0 0 90.8 61.39 24.44 24.44 0 0 1 31.45 16.15 68.92 68.92 0 0 0 102.52 38.75 24.45 24.45 0 0 1 34.33 8.46 68.93 68.93 0 0 0 108.7 14 24.45 24.45 0 0 1 35.36.3 68.92 68.92 0 0 0 109-11.45 24.46 24.46 0 0 1 34.48-7.88 68.92 68.92 0 0 0 103.41-36.31 24.45 24.45 0 0 1 31.72-15.62 68.93 68.93 0 0 0 92.23-59.21 24.45 24.45 0 0 1 27.25-22.53 68.92 68.92 0 0 0 76.07-78.91 24.44 24.44 0 0 1 21.31-28.21 68.92 68.92 0 0 0 55.79-94.34 24.45 24.45 0 0 1 14.23-32.37 68.93 68.93 0 0 0 32.49-104.68 24.45 24.45 0 0 1 6.37-34.78 68.93 68.93 0 0 0 7.44-109.34z" fill="url(#a)"/><circle cx="750" cy="750" opacity=".41" r="511.86" transform="matrix(.70710678 -.70710678 .70710678 .70710678 -310.66 750)"/><circle cx="750" cy="750" fill="#ff6700" r="479.87" transform="matrix(.70710678 -.70710678 .70710678 .70710678 -310.66 750)"/><path d="m423.52 724.77v23.29h-48.62v25.16h36.38v22.61h-36.38v48.28h-29.07v-119.34z" fill="#fff"/><path d="m513.11 823h-44.54l-7.14 21.08h-30.43l43.18-119.34h33.66l43.16 119.37h-30.75zm-7.48-22.44-14.79-43.66-14.62 43.69z" fill="#fff"/><path d="m676.14 724.77-42.33 119.34h-36.38l-42.33-119.34h30.9l29.58 90.1 29.75-90.1z" fill="#fff"/><path d="m713.79 837.48a58.44 58.44 0 0 1 -22.27-21.84 64.31 64.31 0 0 1 0-63 58.67 58.67 0 0 1 22.27-21.76 64.78 64.78 0 0 1 61.71 0 57.39 57.39 0 0 1 22.1 21.76 65.14 65.14 0 0 1 -.08 63 58 58 0 0 1 -22.1 21.84 64.62 64.62 0 0 1 -61.63 0zm53.72-28.22q8.6-9.53 8.59-25.16 0-15.81-8.59-25.24t-22.86-9.44q-14.45 0-23 9.35t-8.65 25.33q0 15.81 8.58 25.24t23 9.44q14.35 0 22.93-9.52z" fill="#fff"/><path d="m882.69 844.11-24.82-45.05h-7v45.05h-29.04v-119.34h48.79q14.1 0 24 4.93a34 34 0 0 1 14.88 13.51 37.81 37.81 0 0 1 4.93 19.13 35.5 35.5 0 0 1 -6.72 21.25q-6.71 9.35-19.8 13.26l27.54 47.26zm-31.79-65.62h18q8 0 12-3.91t4-11.05q0-6.79-4-10.71t-12-3.91h-18z" fill="#fff"/><path d="m961.74 724.77v119.34h-29.07v-119.34z" fill="#fff"/><path d="m1068.67 724.77v23.29h-31.62v96.05h-29.05v-96.05h-31.64v-23.29z" fill="#fff"/><path d="m1112.36 748.06v24.14h38.93v22.44h-38.93v26.18h44v23.29h-73.1v-119.34h73.1v23.29z" fill="#fff"/><path d="m1421.26 928.81h-1342.52l33.72 166.55a168 168 0 0 0 164.67 134.64h945.74a168 168 0 0 0 164.67-134.66z" fill="url(#b)"/><path d="m345.4 1082.67c0-30-10.59-43.72-16.2-48.91a1.6 1.6 0 0 0 -2.65 1.42c1.09 17-20.11 21.23-20.11 47.8v.16c0 16.2 12.16 29.41 27.12 29.41s27.11-13.21 27.11-29.41v-.14c0-7.55-2.8-14.78-5.61-20.13-.62-1.1-2.18-.63-2 .32 5.12 22.94-7.66 37.09-7.66 19.48z" fill="#ff6700"/><path d="m313.14 1146a2.84 2.84 0 0 1 -1.87-.79l-69.34-70a2.88 2.88 0 0 1 0-3.78l73.24-73.91a3.29 3.29 0 0 1 1.71-.63h21a2.46 2.46 0 0 1 2.34 1.58 2.58 2.58 0 0 1 -.62 2.83l-68.73 69.5a3.55 3.55 0 0 0 0 5l54.39 55a2.91 2.91 0 0 1 0 3.78l-10.44 10.69a3.21 3.21 0 0 1 -1.72.63zm13.86 12.31a2.45 2.45 0 0 1 -2.33-1.58 2.54 2.54 0 0 1 .62-2.83l68.88-69.5a3.76 3.76 0 0 0 1.09-2.52 3.12 3.12 0 0 0 -1.09-2.51l-54.54-55a2.88 2.88 0 0 1 0-3.78l10.59-10.69a2.58 2.58 0 0 1 1.87-.79 2.36 2.36 0 0 1 1.72.95l69.19 69.94a2.64 2.64 0 0 1 .78 1.89 2.6 2.6 0 0 1 -.78 1.89l-73.24 73.91a2.57 2.57 0 0 1 -1.87.78h-20.89z" fill="#ff6700"/><g fill="#fff"><path d="m501.71 1047.29a1.57 1.57 0 0 1 -1.56.94 3 3 0 0 1 -1.87-1.1 18 18 0 0 0 -3.12-2.36 18.59 18.59 0 0 0 -5-2.36 20.82 20.82 0 0 0 -7.48-1.1 23.8 23.8 0 0 0 -7.8 1.26 16.8 16.8 0 0 0 -5.61 3.46 13.77 13.77 0 0 0 -3.42 5 15.77 15.77 0 0 0 -1.25 6 13.31 13.31 0 0 0 1.71 6.91 14.4 14.4 0 0 0 4.68 4.56 25.46 25.46 0 0 0 6.54 3.15c2.5.94 5 1.73 7.48 2.52a70.45 70.45 0 0 1 7.48 2.83 29.78 29.78 0 0 1 6.55 3.77 16.58 16.58 0 0 1 4.68 5.66 18.85 18.85 0 0 1 1.71 8.34 27.58 27.58 0 0 1 -1.71 9.59 21.89 21.89 0 0 1 -5 7.86 27.12 27.12 0 0 1 -8.11 5.35 29.89 29.89 0 0 1 -10.9 1.89 30.49 30.49 0 0 1 -13.72-2.84 32.7 32.7 0 0 1 -10.13-7.86l1.56-2.51a1.73 1.73 0 0 1 1.56-.79 1.88 1.88 0 0 1 1.25.63c.46.47 1.24 1.1 1.87 1.73.78.63 1.71 1.41 2.8 2.2a21.3 21.3 0 0 0 3.74 2.2 28.35 28.35 0 0 0 4.83 1.73 25.5 25.5 0 0 0 6.24.63 24 24 0 0 0 8.57-1.41 20.13 20.13 0 0 0 6.39-3.94 17.69 17.69 0 0 0 4.05-6 20.2 20.2 0 0 0 1.4-7.39 14 14 0 0 0 -1.71-7.08 13.46 13.46 0 0 0 -4.68-4.72 25.12 25.12 0 0 0 -6.54-3.14c-2.5-.79-5-1.73-7.48-2.52s-5-1.73-7.48-2.67a24.3 24.3 0 0 1 -6.55-3.78 19.08 19.08 0 0 1 -4.67-5.81 20.43 20.43 0 0 1 -1.72-8.81 19.66 19.66 0 0 1 1.56-7.86 21.22 21.22 0 0 1 4.52-6.76 24.5 24.5 0 0 1 7.32-4.72 28.28 28.28 0 0 1 10-1.73 29.44 29.44 0 0 1 11.37 2 31.55 31.55 0 0 1 9.2 6.13z"/><path d="m479.42 1120.88c-5.45 0-10.28-.94-14.18-3a34.29 34.29 0 0 1 -10.44-8l-.47-.47 2-3.14a2.88 2.88 0 0 1 2.34-1.26 2.69 2.69 0 0 1 1.87.94c.47.47 1.24 1.1 2 1.73s1.72 1.42 2.65 2.2a19.17 19.17 0 0 0 3.59 2.05 20.18 20.18 0 0 0 4.67 1.57 23.42 23.42 0 0 0 6.08.63 22.05 22.05 0 0 0 8.26-1.42 19.94 19.94 0 0 0 6.08-3.77 15.56 15.56 0 0 0 3.74-5.66 17.91 17.91 0 0 0 1.24-7.08 12.18 12.18 0 0 0 -1.55-6.6 14.79 14.79 0 0 0 -4.37-4.41 25.47 25.47 0 0 0 -6.23-3c-2.34-.79-4.83-1.73-7.48-2.52s-5.14-1.73-7.48-2.67a27.88 27.88 0 0 1 -6.7-3.93 18.64 18.64 0 0 1 -4.83-6.14 20.14 20.14 0 0 1 -1.87-9.12 21.94 21.94 0 0 1 1.55-8.33 21.48 21.48 0 0 1 4.68-7.08 23.56 23.56 0 0 1 7.64-4.87 26.6 26.6 0 0 1 10.28-1.89 30.54 30.54 0 0 1 11.69 2 31 31 0 0 1 9.5 6.45l.47.47-1.71 3.3c-.94 1.73-2.65 2.21-4.83.16a21.19 21.19 0 0 0 -3.12-2.2 35.23 35.23 0 0 0 -4.83-2.36 22.18 22.18 0 0 0 -7.17-1.1 21.86 21.86 0 0 0 -7.48 1.26 15.13 15.13 0 0 0 -5.3 3.3 16.14 16.14 0 0 0 -3.27 4.72 14.06 14.06 0 0 0 -1.09 5.66 11.06 11.06 0 0 0 1.56 6.29 14.5 14.5 0 0 0 4.36 4.4 33.61 33.61 0 0 0 6.23 3.15c2.34.78 4.83 1.73 7.48 2.51a61 61 0 0 1 7.48 2.83 28 28 0 0 1 6.71 3.94 18.15 18.15 0 0 1 4.83 6 18.94 18.94 0 0 1 1.87 8.81 27.56 27.56 0 0 1 -1.87 10.06 23.81 23.81 0 0 1 -5.3 8.18 26 26 0 0 1 -8.42 5.5 30.9 30.9 0 0 1 -10.91 1.89zm-22.59-11.79a29.17 29.17 0 0 0 22.75 9.9 28.48 28.48 0 0 0 10.6-1.88 24.76 24.76 0 0 0 7.79-5 22.32 22.32 0 0 0 4.83-7.54 25.86 25.86 0 0 0 1.71-9.28 20.45 20.45 0 0 0 -1.55-8 16.17 16.17 0 0 0 -4.37-5.35 34.83 34.83 0 0 0 -6.23-3.77c-2.34-.95-4.83-1.89-7.33-2.83-2.49-.79-5-1.73-7.48-2.52a38 38 0 0 1 -6.7-3.3 16.05 16.05 0 0 1 -4.83-4.88 13.34 13.34 0 0 1 -1.87-7.39 18.17 18.17 0 0 1 1.25-6.44 13.94 13.94 0 0 1 3.58-5.35 15.23 15.23 0 0 1 5.92-3.62 22.08 22.08 0 0 1 8.11-1.26 23.48 23.48 0 0 1 7.79 1.1 22.57 22.57 0 0 1 5.14 2.52 21.33 21.33 0 0 1 3.28 2.52c.93.78 1.24.78 1.24.78a.59.59 0 0 0 .63-.47l1.09-2a28.29 28.29 0 0 0 -8.26-5.51 30 30 0 0 0 -10.91-1.88 26.24 26.24 0 0 0 -9.66 1.73 22.3 22.3 0 0 0 -7 4.4 18.94 18.94 0 0 0 -5.76 14 18.85 18.85 0 0 0 1.71 8.34 15.13 15.13 0 0 0 4.37 5.5 26.69 26.69 0 0 0 6.23 3.62c2.34.94 4.83 1.89 7.32 2.67s5 1.58 7.48 2.52a29.44 29.44 0 0 1 6.7 3.3 13.64 13.64 0 0 1 4.84 5 14.53 14.53 0 0 1 1.87 7.71 21.83 21.83 0 0 1 -1.41 7.86 15.85 15.85 0 0 1 -4.2 6.29 22.3 22.3 0 0 1 -6.71 4.25 26.34 26.34 0 0 1 -8.88 1.57 28.16 28.16 0 0 1 -6.54-.79 30.43 30.43 0 0 1 -5-1.73 16 16 0 0 1 -3.9-2.35c-1.09-.79-2-1.58-2.8-2.21a21.36 21.36 0 0 1 -1.87-1.73c-.47-.47-.78-.47-.78-.47a.84.84 0 0 0 -.78.47z"/><path d="m594.43 1078.11a50 50 0 0 1 -2.8 17.14 36.34 36.34 0 0 1 -20.1 21.7 42.53 42.53 0 0 1 -31.33 0 34.85 34.85 0 0 1 -12.15-8.49 37.3 37.3 0 0 1 -7.95-13.21 53.68 53.68 0 0 1 0-34.28 37.21 37.21 0 0 1 7.95-13.21 36.79 36.79 0 0 1 12.15-8.49 42.53 42.53 0 0 1 31.33 0 34.68 34.68 0 0 1 12.15 8.49 37.21 37.21 0 0 1 8 13.21 50 50 0 0 1 2.75 17.14zm-6.07 0a47.67 47.67 0 0 0 -2.36-15.41 32.84 32.84 0 0 0 -6.55-11.48 28.37 28.37 0 0 0 -10.28-7.24 36.23 36.23 0 0 0 -26.5 0 28.37 28.37 0 0 0 -10.28 7.24 33.1 33.1 0 0 0 -6.7 11.48 47 47 0 0 0 -2.34 15.41 47.67 47.67 0 0 0 2.34 15.41 31 31 0 0 0 6.7 11.48 28.47 28.47 0 0 0 10.28 7.23 33.22 33.22 0 0 0 13.25 2.52 32.69 32.69 0 0 0 13.25-2.52 26.66 26.66 0 0 0 10.28-7.23 32.93 32.93 0 0 0 6.55-11.48 47 47 0 0 0 2.36-15.41z"/><path d="m555.94 1120.72a42.86 42.86 0 0 1 -15.89-3 35 35 0 0 1 -12.47-8.65 39 39 0 0 1 -8.11-13.53 51.83 51.83 0 0 1 -3-17.45 48.41 48.41 0 0 1 3-17.46 40.43 40.43 0 0 1 8.11-13.52 34.79 34.79 0 0 1 12.47-8.65 40.48 40.48 0 0 1 15.89-3.15 43.72 43.72 0 0 1 16 3 35.13 35.13 0 0 1 12.47 8.65 40.61 40.61 0 0 1 8.1 13.52 55.65 55.65 0 0 1 0 34.92 40.51 40.51 0 0 1 -8.1 13.52 35.13 35.13 0 0 1 -12.47 8.65 38.53 38.53 0 0 1 -16 3.15zm0-83.34a37.73 37.73 0 0 0 -15.27 3 34.69 34.69 0 0 0 -11.84 8.17 35.21 35.21 0 0 0 -7.64 12.9 51.78 51.78 0 0 0 0 33.65 39.13 39.13 0 0 0 7.64 12.9 34.69 34.69 0 0 0 11.84 8.17 42.61 42.61 0 0 0 30.54 0 34.82 34.82 0 0 0 11.85-8.17 36 36 0 0 0 7.63-12.74 51.78 51.78 0 0 0 0-33.65 39.17 39.17 0 0 0 -7.63-12.9 35 35 0 0 0 -11.85-8.18 34.53 34.53 0 0 0 -15.27-3.15z"/><path d="m640.72 1114.75a24.73 24.73 0 0 0 10.44-2 23.64 23.64 0 0 0 7.84-5.75 24 24 0 0 0 4.83-8.49 33.41 33.41 0 0 0 1.72-10.69v-50.48h5.76v50.48a36.8 36.8 0 0 1 -2.18 12.58 30.6 30.6 0 0 1 -6.08 10.22 28.27 28.27 0 0 1 -9.66 6.76 33.12 33.12 0 0 1 -12.78 2.52 30.05 30.05 0 0 1 -22.44-9.28 29.25 29.25 0 0 1 -6.08-10.22 37.49 37.49 0 0 1 -2.18-12.58v-50.48h5.92v50.32a34.16 34.16 0 0 0 1.72 10.69 24.84 24.84 0 0 0 4.83 8.49 23.8 23.8 0 0 0 7.79 5.67 23.33 23.33 0 0 0 10.6 2.2z"/><path d="m640.72 1120.88a31.88 31.88 0 0 1 -13.09-2.52 28.8 28.8 0 0 1 -10-7.07 32.43 32.43 0 0 1 -6.23-10.54 38.61 38.61 0 0 1 -2.18-12.89v-51.42h7.78v51.42a37.88 37.88 0 0 0 1.56 10.38 23.39 23.39 0 0 0 4.67 8.17 22.23 22.23 0 0 0 7.48 5.51 25.1 25.1 0 0 0 10 2 24.49 24.49 0 0 0 10-1.89 20.07 20.07 0 0 0 7.48-5.5 24.72 24.72 0 0 0 4.68-8.18 31.49 31.49 0 0 0 1.56-10.38v-51.57h7.79v51.42a38.61 38.61 0 0 1 -2.18 12.89 32.64 32.64 0 0 1 -6.24 10.54 28.85 28.85 0 0 1 -10 7.07 31.92 31.92 0 0 1 -13.09 2.52zm-29.72-82.56v49.54a34.94 34.94 0 0 0 2 12.26 28.76 28.76 0 0 0 5.92 9.91 25.26 25.26 0 0 0 9.35 6.6 30.82 30.82 0 0 0 12.47 2.36 31.87 31.87 0 0 0 12.46-2.36 26.68 26.68 0 0 0 9.36-6.6 31.66 31.66 0 0 0 5.92-9.91 34.94 34.94 0 0 0 2-12.26v-49.54h-3.89v49.54a36.1 36.1 0 0 1 -1.72 11 23.24 23.24 0 0 1 -5.14 9 23.75 23.75 0 0 1 -8.1 6 26.25 26.25 0 0 1 -10.76 2.21 25.69 25.69 0 0 1 -10.75-2.21 23.66 23.66 0 0 1 -8.1-6 25.17 25.17 0 0 1 -5-9 35.38 35.38 0 0 1 -1.71-11v-49.54z"/><path d="m704.77 1077.64h4.83a36.25 36.25 0 0 0 9.66-1.26 19.58 19.58 0 0 0 7.17-3.78 16.21 16.21 0 0 0 4.52-5.81 17.51 17.51 0 0 0 1.56-7.71c0-5.82-1.87-10.06-5.61-12.9s-9.2-4.24-16.52-4.24h-14.81v77h-5.76v-81.61h20.57c9.35 0 16.36 1.89 20.88 5.5 4.68 3.62 6.86 9 6.86 16a21.11 21.11 0 0 1 -1.56 8.49 20.17 20.17 0 0 1 -4.68 6.77 22.86 22.86 0 0 1 -7.16 4.71 35.12 35.12 0 0 1 -9.51 2.52 11.75 11.75 0 0 1 2.49 2.36l27.9 35.32h-5.15a4.44 4.44 0 0 1 -1.55-.31 2.79 2.79 0 0 1 -1.25-1.1l-25.87-33a6.67 6.67 0 0 0 -2-1.73 43 43 0 0 0 -6.85-.47c0-4.24.62-4.71 1.87-4.71z"/><path d="m747.62 1119.94h-7a4.37 4.37 0 0 1 -2-.47 4.43 4.43 0 0 1 -1.55-1.42l-25.87-33a5.26 5.26 0 0 0 -1.72-1.58 52.69 52.69 0 0 0 -6.39-.47h-.93v-4.09c0-1.41.31-2.2 2.8-2.2h5a34.32 34.32 0 0 0 9.35-1.26 19 19 0 0 0 6.86-3.61 14.58 14.58 0 0 0 4.21-5.51 18.21 18.21 0 0 0 1.4-7.23c0-5.5-1.72-9.44-5.3-12.11s-8.88-4.09-15.9-4.09h-13.92v76.9h-7.79v-83.34h21.66q14.26 0 21.51 5.66c4.83 3.77 7.32 9.43 7.32 16.82a23.62 23.62 0 0 1 -1.71 9 22 22 0 0 1 -4.83 7.07 28.35 28.35 0 0 1 -7.48 5 36.3 36.3 0 0 1 -7.64 2.21 6.31 6.31 0 0 1 .94 1.1zm-43.79-38.84c1.72 0 5.3.15 6.24.62a7.64 7.64 0 0 1 2.49 2l25.87 33a2.72 2.72 0 0 0 .93 1 2.37 2.37 0 0 0 1.09.31h3.12l-26.65-33.65a6.57 6.57 0 0 0 -2.18-2.05l-2.34-1.41 2.81-.32a27.62 27.62 0 0 0 16.21-6.92 18.16 18.16 0 0 0 4.36-6.44 23.25 23.25 0 0 0 1.56-8.18c0-6.76-2.18-11.79-6.55-15.25s-11.22-5.19-20.26-5.19h-19.63v79.41h3.89v-77h15.74c7.33 0 13.09 1.41 17 4.4q6.08 4.49 6.08 13.68a21.7 21.7 0 0 1 -1.56 8 16.52 16.52 0 0 1 -4.83 6.13 21.2 21.2 0 0 1 -7.48 3.93 32.37 32.37 0 0 1 -10 1.42h-4.83c-.46 0-.93 0-1.09 2.52z"/><path d="m814 1105.16a1.11 1.11 0 0 1 .94.47l2.33 2.51a40.22 40.22 0 0 1 -5.45 4.88 33.32 33.32 0 0 1 -6.55 3.61 53.17 53.17 0 0 1 -7.63 2.36 42.63 42.63 0 0 1 -9.2.79 37.91 37.91 0 0 1 -15.42-3 32.76 32.76 0 0 1 -12-8.49 39.32 39.32 0 0 1 -7.8-13.21 50 50 0 0 1 -2.8-17.14 46.2 46.2 0 0 1 3-17 39 39 0 0 1 8.1-13.21 36.61 36.61 0 0 1 12.47-8.49 41 41 0 0 1 16-3 40.09 40.09 0 0 1 15 2.51 26.85 26.85 0 0 1 5.92 3.15 47.35 47.35 0 0 1 5.46 4.24l-1.72 2.52a1.51 1.51 0 0 1 -1.4.63 1.84 1.84 0 0 1 -1.24-.63c-.47-.47-1.25-.94-2-1.57a24.6 24.6 0 0 0 -3-1.89 13.26 13.26 0 0 0 -4.21-1.89 36.18 36.18 0 0 0 -5.61-1.57 33 33 0 0 0 -7.17-.63 34.21 34.21 0 0 0 -13.56 2.52 29.44 29.44 0 0 0 -10.59 7.39 35.49 35.49 0 0 0 -7 11.48 42.36 42.36 0 0 0 -2.49 15.25 43.26 43.26 0 0 0 2.49 15.41 33.55 33.55 0 0 0 6.86 11.48 30.77 30.77 0 0 0 23.06 9.75 38.55 38.55 0 0 0 7.8-.63 23.88 23.88 0 0 0 6.23-1.73 31.82 31.82 0 0 0 10.13-6.76c.16-.15.31-.31.47-.31.12.35.44.2.58.2z"/><path d="m788.3 1120.88a41.83 41.83 0 0 1 -15.74-3 34.19 34.19 0 0 1 -12.31-8.65 38.59 38.59 0 0 1 -8-13.52 51.9 51.9 0 0 1 -2.81-17.46 47.48 47.48 0 0 1 3-17.29 43.94 43.94 0 0 1 8.26-13.53 38.11 38.11 0 0 1 12.78-8.8 42.88 42.88 0 0 1 16.52-3.15 41.57 41.57 0 0 1 15.27 2.52 27.33 27.33 0 0 1 6.08 3.14 46 46 0 0 1 5.61 4.41l.63.62-2.19 3.31a2.44 2.44 0 0 1 -2.18 1.1 3.72 3.72 0 0 1 -1.87-.79 11.75 11.75 0 0 0 -2-1.41 16.3 16.3 0 0 0 -3-1.89 33.37 33.37 0 0 0 -4-1.89 24.88 24.88 0 0 0 -5.45-1.41 44 44 0 0 0 -7-.63 33.15 33.15 0 0 0 -13.25 2.51 30 30 0 0 0 -17 18.25 44.42 44.42 0 0 0 -2.49 14.78 45 45 0 0 0 2.34 15.09 31.54 31.54 0 0 0 6.54 11.17 27.83 27.83 0 0 0 10 6.92 32.05 32.05 0 0 0 12.46 2.36 37.63 37.63 0 0 0 7.64-.63 25.35 25.35 0 0 0 6.08-1.73 39.3 39.3 0 0 0 5.14-2.68 47.06 47.06 0 0 0 4.67-3.77 2.25 2.25 0 0 1 .78-.47 2.14 2.14 0 0 1 2.65.47l3 3.15-.62.62a42.74 42.74 0 0 1 -5.61 5 31.13 31.13 0 0 1 -6.7 3.77 29.48 29.48 0 0 1 -8 2.36 32.62 32.62 0 0 1 -9.23 1.15zm1.71-83.5a39 39 0 0 0 -15.74 3 32.9 32.9 0 0 0 -12.15 8.33 37.3 37.3 0 0 0 -8 12.9 47.27 47.27 0 0 0 -2.81 16.66 48.2 48.2 0 0 0 2.81 16.83 39.28 39.28 0 0 0 7.63 12.9 34.18 34.18 0 0 0 11.69 8.17 38.42 38.42 0 0 0 15 2.83 53.89 53.89 0 0 0 9-.78 27.75 27.75 0 0 0 7.48-2.36 27.12 27.12 0 0 0 6.24-3.62 39.62 39.62 0 0 0 4.67-4.09l-1.71-1.88a.29.29 0 0 0 -.47 0c-.16 0-.31.15-.47.31a38.44 38.44 0 0 1 -5 3.93 37 37 0 0 1 -5.45 3 29.73 29.73 0 0 1 -6.39 1.73 59.1 59.1 0 0 1 -7.95.63 36.81 36.81 0 0 1 -13.24-2.52 31.46 31.46 0 0 1 -10.6-7.39 35.14 35.14 0 0 1 -7-11.79 50.23 50.23 0 0 1 0-31.3 33 33 0 0 1 7.17-11.79 31 31 0 0 1 10.9-7.55 36.38 36.38 0 0 1 13.87-2.67 35.51 35.51 0 0 1 7.33.63 42.68 42.68 0 0 1 5.76 1.57 23.15 23.15 0 0 1 4.37 2 32.86 32.86 0 0 1 3 2.05c.78.63 1.56 1.1 2 1.57s.78.47.78.47c.47 0 .63-.15.63-.31l1.24-1.89a46.36 46.36 0 0 0 -4.67-3.62 28.72 28.72 0 0 0 -5.77-3 41 41 0 0 0 -6.7-1.89 21.33 21.33 0 0 0 -7.48-1.1z"/><path d="m880.55 1037.38v4.87h-42.55v33h35.38v4.75h-35.38v34h42.54v4.88h-48.45v-81.46z"/><path d="m881.49 1119.94h-50.34v-83.5h50.34v6.76h-42.49v31h35.37v6.76h-35.37v32.04h42.54zm-48.49-1.89h46.6v-3h-42.52v-36h35.37v-2.83h-35.37v-34.91h42.54v-3h-46.62z"/><path d="m953 1036.44v12.42h-36.6v24.69h30.85v12.45h-30.85v34h-15.4v-83.35h52zm89.61 41.67a46.4 46.4 0 0 1 -3 17 39 39 0 0 1 -8.58 13.52 39.45 39.45 0 0 1 -13.24 9 43.29 43.29 0 0 1 -17.14 3.14 46.37 46.37 0 0 1 -17.15-3.14 39.26 39.26 0 0 1 -21.81-22.49 50.21 50.21 0 0 1 0-34 39 39 0 0 1 8.57-13.52 41.25 41.25 0 0 1 13.24-9 47.19 47.19 0 0 1 34.29.15 39.32 39.32 0 0 1 21.82 22.49 48.18 48.18 0 0 1 3.02 16.85zm-15.74 0a37.73 37.73 0 0 0 -1.87-12.27 27.92 27.92 0 0 0 -5.15-9.28 22.51 22.51 0 0 0 -8.25-5.81 30.06 30.06 0 0 0 -21.82 0 23.87 23.87 0 0 0 -8.26 5.81 25.77 25.77 0 0 0 -5.3 9.28 41.16 41.16 0 0 0 0 24.53 25.69 25.69 0 0 0 5.3 9.28 23.89 23.89 0 0 0 8.26 5.82 30.19 30.19 0 0 0 21.82 0 23.85 23.85 0 0 0 8.25-5.82 27.82 27.82 0 0 0 5.15-9.28 37.63 37.63 0 0 0 1.89-12.26zm47.84-1.89h3.58a22.28 22.28 0 0 0 7.64-1.1 15.68 15.68 0 0 0 5.3-3 11.46 11.46 0 0 0 3.12-4.56 17.6 17.6 0 0 0 1.09-5.82c0-4.24-1.41-7.55-4.21-9.75s-7-3.46-12.62-3.46h-10v71.4h-15.43v-83.35h25.25a55.53 55.53 0 0 1 14.49 1.73 26.12 26.12 0 0 1 9.82 4.88 18.72 18.72 0 0 1 5.61 7.55 24.59 24.59 0 0 1 1.87 9.74 26.88 26.88 0 0 1 -1.25 8 21.47 21.47 0 0 1 -3.58 6.77 23.7 23.7 0 0 1 -5.77 5.34 25.22 25.22 0 0 1 -7.79 3.62 15.69 15.69 0 0 1 5 4.72l20.73 30.82h-13.87a7.24 7.24 0 0 1 -3.43-.79 5.54 5.54 0 0 1 -2.34-2.36l-17.3-26.73c-.47-.63-1.4-2-2.34-2.2h-5.45v-10.06c.16-1.42 1.87-1.42 1.87-1.42zm88 32.24a38 38 0 0 0 9-1 41.15 41.15 0 0 0 7.32-2.67v-18.79h-10.28a3.75 3.75 0 0 1 -2.34-.79 2.78 2.78 0 0 1 -.94-2v-8.81h27.53v37.43a34.6 34.6 0 0 1 -6.54 3.93 50.23 50.23 0 0 1 -7.33 2.83 44.59 44.59 0 0 1 -8.26 1.57 87.94 87.94 0 0 1 -9.5.48 44.27 44.27 0 0 1 -16.68-3.15 36.37 36.37 0 0 1 -13.09-8.81 42 42 0 0 1 -8.73-13.52 47.31 47.31 0 0 1 -3.11-17.14 47.93 47.93 0 0 1 3-17.3 39 39 0 0 1 8.57-13.52 38.31 38.31 0 0 1 13.56-8.81 49.09 49.09 0 0 1 17.76-3.14c6.7 0 12.63.94 17.46 3a41.34 41.34 0 0 1 12.46 7.87l-4.51 7.07a4.1 4.1 0 0 1 -3.43 2.21 5 5 0 0 1 -2.81-1c-1.25-.78-2.49-1.41-3.74-2.2a17.39 17.39 0 0 0 -4.21-1.89 40.35 40.35 0 0 0 -5.14-1.25 41.26 41.26 0 0 0 -6.7-.48 27.67 27.67 0 0 0 -11.06 2 22.89 22.89 0 0 0 -8.42 6 25.77 25.77 0 0 0 -5.3 9.28 37.16 37.16 0 0 0 -1.87 12.11 36.46 36.46 0 0 0 2 12.89 27.91 27.91 0 0 0 5.61 9.44 25.65 25.65 0 0 0 8.57 6 29.22 29.22 0 0 0 11.22 2.2zm84.62-22.18h-25.09v21.08h36.47v12.42h-52v-83.34h52v12.42h-36.63v25.63h28.92v9.12s-.15 2.67-3.58 2.67z"/><path d="m692.21 576.09c0-16.6.08-33.2-.06-49.8 0-3.37.65-5 4.46-5.35 5.47-.53 9.07-4.55 12.4-8.5 7.68-9.13 12.88-19.73 17.54-30.59q4.55-10.62 8.55-21.47c2.48-6.74 6-12.78 11.74-17.12 13-9.88 19.31-23.45 21.75-39.07 1.55-9.89 2.54-19.87 3.53-29.83.31-3.15 1.52-4.25 4.6-4.23 8.65.06 18.33 7.2 21.72 16.85 5.21 14.82 4.41 29.64-1.28 44.15-3.62 9.23-8.13 18.13-11.44 27.46a63.62 63.62 0 0 0 -3 16.73c-.38 5.4 1.16 6.49 6.56 6.42 11.45-.15 22.9-.67 34.34-.45 8.73.17 17.44 1.18 26.15 1.94a9 9 0 0 1 4.29 1.37c8.16 5.85 12.93 13.92 14.77 23.71.25 1.34-.49 2.92-1 4.32a6.79 6.79 0 0 1 -1.5 2.35c-7.36 7.79-6.69 15.81-.77 24 .27.38.43.84.7 1.22 3.41 4.75 3.41 9.28-.95 13.46-7.72 7.4-8.62 15.83-3.84 25.12 3.51 6.84 1.8 12.6-3.52 17.68-1.18 1.13-2.21 2.42-3.39 3.55a17.61 17.61 0 0 0 -5.53 13.8c.28 15.36-11.93 28.36-27.26 30-17.38 1.86-34.7.66-52.08.22-25.21-.65-49.31-7.23-73.81-11.7-2.79-.51-3.78-1.77-3.76-4.7.16-17.17.09-34.36.09-51.54z"/><path d="m676.67 577.51q0 26.13 0 52.27c0 6.94-2.84 9.75-9.81 9.77q-13 0-26 0c-6.43 0-9.71-3-9.73-9.32q-.09-52.63 0-105.25c0-5.79 3-9 8.75-9.2q14.21-.39 28.41 0c5.7.16 8.33 3.33 8.34 9.09q.08 26.32.04 52.64z"/></g></svg>